<?xml version="1.0" encoding="UTF-8" standalone="no"?>
<svg width="353px" height="38px" viewBox="0 0 353 38" version="1.1" xmlns="http://www.w3.org/2000/svg" xmlns:xlink="http://www.w3.org/1999/xlink">
    <!-- Generator: Sketch 44.1 (41455) - http://www.bohemiancoding.com/sketch -->
    <title>logo</title>
    <desc>Created with Sketch.</desc>
    <defs></defs>
    <g id="Page-1" stroke="none" stroke-width="1" fill="none" fill-rule="evenodd">
        <g id="main" transform="translate(-35.000000, -14.000000)" fill="#FFFFFF">
            <g id="logo" transform="translate(35.000000, 14.000000)">
                <path d="M155.7,15.8 L154.4,17.04 C155.86,18.2 156.98,19.28 157.78,20.28 L159.12,18.96 C158.2,17.92 157.06,16.86 155.7,15.8 Z M167.2,33.72 C166.1,33.72 164.9,33.7 163.62,33.68 C162.32,33.66 161.26,33.54 160.42,33.34 C159.62,33.1 158.92,32.62 158.32,31.94 C158.04,31.6 157.8,31.44 157.56,31.44 C157.14,31.44 156.42,32.34 155.4,34.14 L154,32.84 C155,31.22 155.9,30.2 156.7,29.8 L156.7,24.14 L154.02,24.14 L154.02,22.38 L158.48,22.38 L158.48,29.94 C158.58,30.02 158.68,30.12 158.78,30.24 C159.24,30.78 159.72,31.18 160.22,31.44 C160.82,31.72 161.7,31.9 162.88,31.94 C164.02,31.96 165.36,31.98 166.92,31.98 C167.9,31.98 168.9,31.96 169.9,31.94 C170.9,31.92 171.68,31.88 172.22,31.84 L171.76,33.72 L167.2,33.72 Z M163.74,17.78 L159.88,17.78 L159.88,16.2 L170.86,16.2 L170.86,17.54 C169.7,18.54 168.46,19.38 167.14,20.1 C167.18,20.14 167.22,20.16 167.26,20.2 L171.28,20.2 L171.28,29.08 C171.28,30.26 170.62,30.86 169.32,30.86 L167.78,30.86 L167.38,29.28 L168.8,29.36 C169.24,29.36 169.48,29.14 169.48,28.7 L169.48,27.68 L166.6,27.68 L166.6,30.96 L164.86,30.96 L164.86,27.68 L162.04,27.68 L162.04,31 L160.24,31 L160.24,20.2 L164.84,20.2 C164.18,19.76 163.44,19.3 162.62,18.86 L163.74,17.78 Z M165.98,19.2 C166.82,18.78 167.6,18.3 168.32,17.78 L163.84,17.78 C164.6,18.26 165.32,18.72 165.98,19.2 Z M162.04,24.74 L162.04,26.14 L164.86,26.14 L164.86,24.74 L162.04,24.74 Z M166.6,24.74 L166.6,26.14 L169.48,26.14 L169.48,24.74 L166.6,24.74 Z M169.48,23.18 L169.48,21.78 L166.6,21.78 L166.6,23.18 L169.48,23.18 Z M164.86,23.18 L164.86,21.78 L162.04,21.78 L162.04,23.18 L164.86,23.18 Z M182.48,18.04 L182.48,19.9 L191.64,19.9 L191.64,18.04 L187.98,18.04 C187.7,17.08 187.4,16.24 187.1,15.48 L185.1,15.8 C185.42,16.48 185.74,17.22 186.02,18.04 L182.48,18.04 Z M173.82,24.16 L175.06,24.16 L175.06,17.52 L177.36,17.52 C177.6,16.84 177.78,16.14 177.9,15.44 L179.9,15.72 C179.76,16.36 179.56,16.96 179.32,17.52 L181.84,17.52 L181.84,32.04 C181.84,33.28 181.24,33.92 180.08,33.92 L178.4,33.92 L177.92,32.16 C178.5,32.22 179.04,32.26 179.52,32.26 C179.9,32.26 180.1,31.98 180.1,31.42 L180.1,25.92 L176.76,25.92 C176.66,29.26 176.12,31.98 175.16,34.1 L173.66,32.74 C174.5,30.92 174.96,28.64 175.04,25.92 L173.82,25.92 L173.82,24.16 Z M180.1,24.16 L180.1,19.28 L176.78,19.28 L176.78,24.16 L180.1,24.16 Z M178.42,20.02 C178.9,20.88 179.34,21.88 179.74,23 L178.34,23.36 C178,22.36 177.58,21.38 177.06,20.46 L178.42,20.02 Z M178.48,26.74 C178.96,27.82 179.38,29.04 179.76,30.44 L178.26,30.84 C177.94,29.58 177.52,28.38 177.02,27.22 L178.48,26.74 Z M181.8,32.84 C182.54,31.92 183.06,30.98 183.34,30 C183.58,29.12 183.72,27.82 183.72,26.12 L183.72,21.74 L189.54,21.74 L189.54,31.8 C189.54,32 189.62,32.12 189.82,32.12 L190.2,32.12 C190.28,32.12 190.36,32.08 190.44,32.04 C190.5,32 190.56,31.92 190.6,31.84 C190.64,31.64 190.68,30.8 190.68,29.28 L192.4,29.82 C192.4,30.94 192.34,31.8 192.26,32.36 C192.18,32.9 192.02,33.28 191.76,33.5 C191.48,33.68 191.04,33.78 190.44,33.78 L189.78,33.78 C188.42,33.78 187.76,33.18 187.76,31.98 L187.76,23.48 L185.5,23.48 L185.5,26.12 C185.5,27.86 185.34,29.34 185.02,30.58 C184.7,31.78 184.12,32.98 183.26,34.14 L181.8,32.84 Z M199.94,29.36 C198.78,30.32 196.82,31.22 194.1,32.02 L195.1,33.64 C198.34,32.44 200.6,31 201.86,29.36 L202.12,29.36 L202.12,34.08 L204,34.08 L204,29.36 L204.26,29.36 C205.64,31.08 207.92,32.48 211.1,33.56 L211.92,31.88 C209.42,31.24 207.52,30.4 206.2,29.36 L211.68,29.36 L211.68,27.62 L204,27.62 L204,26.82 L202.12,26.82 L202.12,27.62 L194.32,27.62 L194.32,29.36 L199.94,29.36 Z M196.14,21.06 C195.74,21.5 195.3,21.94 194.84,22.38 L193.74,20.94 C195.42,19.42 196.68,17.6 197.52,15.52 L199.3,15.92 C199.12,16.4 198.92,16.88 198.7,17.32 L202.54,17.32 C202.28,16.76 202,16.24 201.7,15.76 L203.64,15.44 C203.9,16 204.16,16.62 204.42,17.32 L210.72,17.32 L210.72,18.88 L204.52,18.88 L204.52,19.9 L209.92,19.9 L209.92,21.34 L204.52,21.34 L204.52,22.32 L209.92,22.32 L209.92,23.76 L204.52,23.76 L204.52,24.82 L211.1,24.82 L211.1,26.4 L196.14,26.4 L196.14,21.06 Z M202.66,24.82 L202.66,23.76 L197.9,23.76 L197.9,24.82 L202.66,24.82 Z M202.66,22.32 L202.66,21.34 L197.9,21.34 L197.9,22.32 L202.66,22.32 Z M202.66,19.9 L202.66,18.88 L197.9,18.88 L197.9,19.9 L202.66,19.9 Z M217.76,21.12 L224.32,21.12 L224.32,18.88 L226.14,18.88 L226.14,21.12 L228.46,21.12 L228.46,22.82 L226.14,22.82 L226.14,28.54 C226.14,29.86 225.5,30.52 224.26,30.52 L221.96,30.52 L221.56,28.76 C222.28,28.84 222.98,28.88 223.64,28.88 C224.08,28.88 224.32,28.6 224.32,28.06 L224.32,23.32 C222.82,25.8 220.86,27.78 218.42,29.22 L217.4,27.54 C219.74,26.36 221.6,24.78 223,22.82 L217.76,22.82 L217.76,21.12 Z M231.28,16.34 L231.28,34.08 L229.46,34.08 L229.46,33.32 L216.54,33.32 L216.54,34.08 L214.72,34.08 L214.72,16.34 L231.28,16.34 Z M216.54,31.6 L229.46,31.6 L229.46,18.06 L216.54,18.06 L216.54,31.6 Z M242.48,18.04 L242.48,19.9 L251.64,19.9 L251.64,18.04 L247.98,18.04 C247.7,17.08 247.4,16.24 247.1,15.48 L245.1,15.8 C245.42,16.48 245.74,17.22 246.02,18.04 L242.48,18.04 Z M233.82,24.16 L235.06,24.16 L235.06,17.52 L237.36,17.52 C237.6,16.84 237.78,16.14 237.9,15.44 L239.9,15.72 C239.76,16.36 239.56,16.96 239.32,17.52 L241.84,17.52 L241.84,32.04 C241.84,33.28 241.24,33.92 240.08,33.92 L238.4,33.92 L237.92,32.16 C238.5,32.22 239.04,32.26 239.52,32.26 C239.9,32.26 240.1,31.98 240.1,31.42 L240.1,25.92 L236.76,25.92 C236.66,29.26 236.12,31.98 235.16,34.1 L233.66,32.74 C234.5,30.92 234.96,28.64 235.04,25.92 L233.82,25.92 L233.82,24.16 Z M240.1,24.16 L240.1,19.28 L236.78,19.28 L236.78,24.16 L240.1,24.16 Z M238.42,20.02 C238.9,20.88 239.34,21.88 239.74,23 L238.34,23.36 C238,22.36 237.58,21.38 237.06,20.46 L238.42,20.02 Z M238.48,26.74 C238.96,27.82 239.38,29.04 239.76,30.44 L238.26,30.84 C237.94,29.58 237.52,28.38 237.02,27.22 L238.48,26.74 Z M241.8,32.84 C242.54,31.92 243.06,30.98 243.34,30 C243.58,29.12 243.72,27.82 243.72,26.12 L243.72,21.74 L249.54,21.74 L249.54,31.8 C249.54,32 249.62,32.12 249.82,32.12 L250.2,32.12 C250.28,32.12 250.36,32.08 250.44,32.04 C250.5,32 250.56,31.92 250.6,31.84 C250.64,31.64 250.68,30.8 250.68,29.28 L252.4,29.82 C252.4,30.94 252.34,31.8 252.26,32.36 C252.18,32.9 252.02,33.28 251.76,33.5 C251.48,33.68 251.04,33.78 250.44,33.78 L249.78,33.78 C248.42,33.78 247.76,33.18 247.76,31.98 L247.76,23.48 L245.5,23.48 L245.5,26.12 C245.5,27.86 245.34,29.34 245.02,30.58 C244.7,31.78 244.12,32.98 243.26,34.14 L241.8,32.84 Z M256.1,25.64 L256.1,27.44 L262.02,27.44 L262.02,31.6 L254.42,31.6 L254.42,33.42 L271.6,33.42 L271.6,31.6 L263.94,31.6 L263.94,27.44 L269.92,27.44 L269.92,25.64 L256.1,25.64 Z M264.98,20.16 C267.06,21.08 268.94,22.22 270.66,23.56 L269.58,25.18 C267.76,23.68 265.9,22.5 263.98,21.64 L264.98,20.16 Z M260.58,20.28 L261.76,21.64 C260.18,23.04 258.24,24.2 255.94,25.12 L255.12,23.4 C257.32,22.6 259.14,21.56 260.58,20.28 Z M263.3,15.44 C263.54,16.04 263.76,16.7 264,17.42 L271.64,17.42 L271.64,21.68 L269.7,21.68 L269.7,19.18 L256.32,19.18 L256.32,21.66 L254.38,21.66 L254.38,17.42 L262.02,17.42 C261.78,16.82 261.5,16.26 261.22,15.76 L263.3,15.44 Z M288.84,23.46 L288.84,27.66 L279.1,27.66 L279.1,28.72 L289.78,28.72 L289.78,34.06 L287.88,34.06 L287.88,33.34 L279.1,33.34 L279.1,34.04 L277.2,34.04 L277.2,23.46 L288.84,23.46 Z M279.1,31.66 L287.88,31.66 L287.88,30.22 L279.1,30.22 L279.1,31.66 Z M279.1,26.14 L286.98,26.14 L286.98,24.98 L279.1,24.98 L279.1,26.14 Z M291.6,20.96 L291.6,24.78 L289.74,24.78 L289.74,22.56 L276.26,22.56 L276.26,24.78 L274.4,24.78 L274.4,20.96 L282.14,20.96 C281.98,20.56 281.8,20.2 281.62,19.88 L283.3,19.6 L282.96,19.38 C283.88,18.18 284.56,16.9 284.96,15.52 L286.78,15.92 C286.66,16.26 286.56,16.58 286.44,16.9 L292,16.9 L292,18.56 L288.74,18.56 C289.06,19 289.32,19.44 289.54,19.84 L287.86,20.46 C287.54,19.82 287.16,19.18 286.72,18.56 L285.7,18.56 C285.36,19.22 284.98,19.84 284.56,20.4 L283.6,19.78 C283.76,20.14 283.9,20.54 284.06,20.96 L291.6,20.96 Z M277.1,18.56 C276.66,19.28 276.18,19.96 275.66,20.58 L274,19.54 C275.16,18.3 275.98,16.94 276.48,15.5 L278.3,15.9 C278.18,16.24 278.04,16.58 277.92,16.9 L282.96,16.9 L282.96,18.56 L279.96,18.56 C280.32,19.06 280.64,19.54 280.88,20 L279.14,20.66 C278.8,19.94 278.42,19.24 277.98,18.56 L277.1,18.56 Z M301.14,16.28 L311.26,16.28 L311.26,25.84 L307.16,25.84 L307.16,27.84 L311.52,27.84 L311.52,29.6 L307.16,29.6 L307.16,31.68 L312.22,31.68 L312.22,33.5 L300.12,33.5 L300.12,31.68 L305.28,31.68 L305.28,29.6 L300.9,29.6 L300.9,27.84 L305.28,27.84 L305.28,25.84 L301.14,25.84 L301.14,16.28 Z M309.44,24.16 L309.44,21.88 L307.16,21.88 L307.16,24.16 L309.44,24.16 Z M305.28,24.16 L305.28,21.88 L302.96,21.88 L302.96,24.16 L305.28,24.16 Z M302.96,20.24 L305.28,20.24 L305.28,17.96 L302.96,17.96 L302.96,20.24 Z M307.16,17.96 L307.16,20.24 L309.44,20.24 L309.44,17.96 L307.16,17.96 Z M294.24,22.86 L296.22,22.86 L296.22,18.58 L293.94,18.58 L293.94,16.78 L300.4,16.78 L300.4,18.58 L298.14,18.58 L298.14,22.86 L300.16,22.86 L300.16,24.68 L298.14,24.68 L298.14,28.68 C298.82,28.44 299.48,28.2 300.12,27.92 L300.12,29.76 C298.28,30.48 296.32,31.1 294.22,31.6 L293.76,29.78 C294.6,29.64 295.42,29.46 296.22,29.26 L296.22,24.68 L294.24,24.68 L294.24,22.86 Z M314.88,16.36 L331.16,16.36 L331.16,18.22 L323.88,18.22 L323.88,25.3 L331.92,25.3 L331.92,27.12 L323.88,27.12 L323.88,34.04 L321.96,34.04 L321.96,27.12 L314.08,27.12 L314.08,25.3 L321.96,25.3 L321.96,18.22 L314.88,18.22 L314.88,16.36 Z M317.68,19.16 C318.4,20.52 319.1,22 319.78,23.64 L318,24.52 C317.34,22.84 316.64,21.34 315.9,20.02 L317.68,19.16 Z M328.48,19.08 L330.22,19.9 C329.64,21.44 328.88,22.94 327.96,24.42 L326.24,23.54 C327.18,22.02 327.92,20.54 328.48,19.08 Z M349.84,25.58 L349.84,34.08 L347.92,34.08 L347.92,33.26 L338.08,33.26 L338.08,34.08 L336.16,34.08 L336.16,25.58 L349.84,25.58 Z M338.08,31.44 L347.92,31.44 L347.92,27.4 L338.08,27.4 L338.08,31.44 Z M334.86,23.72 C339.98,23.52 344.64,23.24 348.82,22.88 C349.28,23.62 349.74,24.4 350.22,25.24 L352.08,24.32 C350.62,21.9 349.08,19.7 347.46,17.7 L345.74,18.52 C346.4,19.36 347.06,20.24 347.7,21.2 C344.52,21.5 341.24,21.72 337.84,21.84 C339.52,20.32 341.16,18.44 342.78,16.2 L340.8,15.52 C338.12,19.44 336.02,21.58 334.5,21.92 L334.86,23.72 Z" id="通航集团航空管理平台"></path>
                <g id="logo-中英文_345x45" fill-rule="nonzero">
                    <g id="空中社区logo">
                        <path d="M76.9312269,26.276168 L66.8057656,32.4772123 L56.6380348,26.295153 L48.3230922,37.8051003 C47.7602567,37.4760786 47.2623095,35.6175931 48.067446,34.1547779 L53.4576955,24.3614819 L47.8449419,20.9488841 C46.4394943,20.094361 46.5998124,19.1473827 47.1192728,19.0457615 L54.6984814,22.1071551 L66.8663034,0 L78.905742,22.0326697 L86.3620106,18.9765172 C87.3684426,19.201862 87.0471841,20.080944 85.6440014,20.9402826 L80.1480391,24.3061249 L85.5535872,34.1985012 C86.3539983,35.6632866 86.2348152,37.365729 85.2868309,38 L76.9312269,26.276168 Z M75.0370102,23.6183736 L66.860102,12.1452713 L58.5419793,23.6596206 L66.7991817,26.9948694 L75.0370102,23.6183736 Z" id="Combined-Shape"></path>
                        <path d="M8.1681748,18.87278 L5.66539144,23.4814771 L0.250278337,23.4814771 L2.77581427,18.87278 L8.1681748,18.87278 Z M18.679865,18.87278 L21.1826483,23.4814771 L15.7675353,23.4814771 L13.2647519,18.87278 L18.679865,18.87278 Z M0.0227525761,18.1533737 L0.0227525761,13.9268612 L8.00890677,13.9268612 L8.00890677,12.263234 L13.4240199,12.263234 L13.4240199,13.9268612 L21.410174,13.9268612 L21.410174,18.1533737 L16.0178135,18.1533737 L16.0178135,15.6354514 L5.4151131,15.6354514 L5.4151131,18.1533737 L0.0227525761,18.1533737 Z M0.682577281,24.4032166 L20.8868649,24.4032166 L20.8868649,26.0893253 L13.4922776,26.0893253 L13.4922776,31.732169 L20.8868649,31.732169 L20.8868649,33.4407591 L0.682577281,33.4407591 L0.682577281,31.732169 L8.0771645,31.732169 L8.0771645,26.0893253 L0.682577281,26.0893253 L0.682577281,24.4032166 Z M28.7876149,18.4456325 L25.8264786,27.2808421 L30.8297406,27.2808421 L30.8297406,18.4456325 L28.7876149,18.4456325 Z M38.3380906,26.62888 L40.4200256,18.4456325 L36.2448537,18.4456325 L36.2448537,27.2808421 L37.678266,27.2808421 C38.0423071,27.2808421 38.3380906,26.9885832 38.3380906,26.62888 Z M43.7076986,16.7370424 L43.7076986,26.8536945 C43.7076986,28.0227299 42.7520904,28.9894322 41.5462039,28.9894322 L36.2448537,28.9894322 L36.2448537,33.5082035 L30.8297406,33.5082035 L30.8297406,28.9894322 L23.3668956,28.9894322 L23.3668956,16.7370424 L30.8297406,16.7370424 L30.8297406,12.2182711 L36.2448537,12.2182711 L36.2448537,16.7370424 L43.7076986,16.7370424 Z M97.0446518,20.8462526 L98.5654999,20.8462526 L101.395946,26.8874167 L97.0446518,26.8874167 L97.0446518,20.8462526 Z M91.6295389,12.1957896 L96.7716212,12.1957896 L96.7716212,14.4888974 L98.4098066,14.4888974 L96.3165693,20.4464815 L96.3165693,33.485722 L91.7660546,33.485722 L91.7660546,26.2466954 L89.650065,26.2466954 L93.1084563,15.9951545 L89.6728173,15.9951545 L89.6728173,14.4888974 L91.6295389,14.4888974 L91.6295389,12.1957896 Z M99.9797342,20.5813702 L102.801054,26.844505 L102.801054,31.732169 L99.6156934,31.732169 L99.6156934,33.4407591 L111.196754,33.4407591 L111.196754,31.732169 L107.988641,31.732169 L107.988641,20.5813702 L110.832712,20.5813702 L110.832712,18.8952615 L107.988641,18.8952615 L107.988641,12.3081969 L102.801054,12.3081969 L102.801054,18.8952615 L99.9797342,18.8952615 L99.9797342,20.5813702 Z M117.658486,31.7096876 L133.699052,31.7096876 L133.699052,33.4182777 L112.675671,33.4182777 L112.675671,12.8252702 L133.699052,12.8252702 L133.699052,14.5338603 L117.658486,14.5338603 L117.658486,31.7096876 Z" id="空中社区"></path>
                        <polygon id="Path-Copy" points="126.031434 19.3898534 133.312258 30.5406522 128.443207 30.5406522 126.031434 26.8536945 123.619661 30.5406522 118.750609 30.5406522"></polygon>
                        <polygon id="Path-Copy-2" points="123.619661 15.6804143 126.031434 19.3898534 128.443207 15.6804143 133.312258 15.6804143 126.031434 26.8536945 118.750609 15.6804143"></polygon>
                    </g>
                </g>
            </g>
        </g>
    </g>
</svg>