<?xml version="1.0" encoding="UTF-8" standalone="no"?>
<svg width="500px" height="140px" viewBox="0 0 500 140" version="1.1" xmlns="http://www.w3.org/2000/svg" xmlns:xlink="http://www.w3.org/1999/xlink">
    <!-- Generator: Sketch 41 (35326) - http://www.bohemiancoding.com/sketch -->
    <title>Artboard</title>
    <desc>Created with Sketch.</desc>
    <defs></defs>
    <g id="Page-1" stroke="none" stroke-width="1" fill="none" fill-rule="evenodd">
        <g id="Artboard">
            <g id="Group" transform="translate(71.000000, 30.000000)">
                <g id="logo">
                    <rect id="#" opacity="0.15" x="112.695793" y="23.25" width="246.304207" height="34.875"></rect>
                    <g id="logo_icon">
                        <rect id="#" opacity="0.15" x="0" y="0" width="95.2686084" height="79.05"></rect>
                        <path d="M24.3980583,73.8014851 L18.201726,73.8014851 C17.3450831,73.8014851 16.6526429,74.497604 16.6526429,75.3553218 C16.6526429,76.2130396 17.3450831,76.9091584 18.201726,76.9091584 L24.3980583,76.9091584 C25.2547012,76.9091584 25.9471413,76.2130396 25.9471413,75.3553218 C25.9471413,74.497604 25.2547012,73.8014851 24.3980583,73.8014851 M24.3980583,64.4784653 L8.90722762,64.4784653 C8.05058468,64.4784653 7.35814455,65.1745842 7.35814455,66.032302 C7.35814455,66.8900198 8.05058468,67.5861386 8.90722762,67.5861386 L24.3980583,67.5861386 C25.2547012,67.5861386 25.9471413,66.8900198 25.9471413,66.032302 C25.9471413,65.1745842 25.2547012,64.4784653 24.3980583,64.4784653 M24.3980583,55.1554455 L15.1035599,55.1554455 C14.2469169,55.1554455 13.5544768,55.8515644 13.5544768,56.7092822 C13.5544768,57.567 14.2469169,58.2631188 15.1035599,58.2631188 L24.3980583,58.2631188 C25.2547012,58.2631188 25.9471413,57.567 25.9471413,56.7092822 C25.9471413,55.8515644 25.2547012,55.1554455 24.3980583,55.1554455 M18.201726,14.7556931 L24.3980583,14.7556931 C25.2547012,14.7556931 25.9471413,14.0595743 25.9471413,13.2018564 C25.9471413,12.3441386 25.2547012,11.6480198 24.3980583,11.6480198 L18.201726,11.6480198 C17.3450831,11.6480198 16.6526429,12.3441386 16.6526429,13.2018564 C16.6526429,14.0595743 17.3450831,14.7556931 18.201726,14.7556931 M21.2998921,5.43267327 L24.3980583,5.43267327 C25.2547012,5.43267327 25.9471413,4.73655446 25.9471413,3.87883663 C25.9471413,3.02111881 25.2547012,2.325 24.3980583,2.325 L21.2998921,2.325 C20.4432492,2.325 19.7508091,3.02111881 19.7508091,3.87883663 C19.7508091,4.73655446 20.4432492,5.43267327 21.2998921,5.43267327 M33.6925566,17.8633663 C34.5491996,17.8633663 35.2416397,17.1672475 35.2416397,16.3095297 L35.2416397,5.43267327 L42.2605351,5.43267327 C42.4495232,5.43267327 42.931288,5.70459468 43.1140798,6.12568441 L47.761329,16.924849 C48.0138296,17.5121993 48.5838921,17.8633663 49.1849364,17.8633663 C49.3894153,17.8633663 49.5985415,17.8229666 49.7968242,17.7359517 C50.5822093,17.3956615 50.9446947,16.4820056 50.6054455,15.6942104 L45.9550982,4.88727661 C45.3075814,3.40180879 43.7538511,2.325 42.2605351,2.325 L35.2416397,2.325 C33.5330011,2.325 32.1434736,3.75297587 32.1434736,5.5103651 L32.1434736,16.3095297 C32.1434736,17.1672475 32.8359137,17.8633663 33.6925566,17.8633663 M64.6742179,45.8324257 L83.2632147,45.8324257 C84.1198576,45.8324257 84.8122977,45.1363069 84.8122977,44.2785891 C84.8122977,43.4208713 84.1198576,42.7247525 83.2632147,42.7247525 L64.6742179,42.7247525 C63.817575,42.7247525 63.1251348,43.4208713 63.1251348,44.2785891 C63.1251348,45.1363069 63.817575,45.8324257 64.6742179,45.8324257 M19.7508091,30.2940594 C19.7508091,32.0079412 21.1403366,33.4017327 22.8489752,33.4017327 C24.5576138,33.4017327 25.9471413,32.0079412 25.9471413,30.2940594 C25.9471413,28.5801776 24.5576138,27.1863861 22.8489752,27.1863861 C21.1403366,27.1863861 19.7508091,28.5801776 19.7508091,30.2940594 M35.2416397,30.2940594 C35.2416397,28.5801776 33.8521122,27.1863861 32.1434736,27.1863861 C30.434835,27.1863861 29.0453074,28.5801776 29.0453074,30.2940594 C29.0453074,32.0079412 30.434835,33.4017327 32.1434736,33.4017327 C33.8521122,33.4017327 35.2416397,32.0079412 35.2416397,30.2940594 M44.5361381,30.2940594 C44.5361381,28.5801776 43.1466106,27.1863861 41.437972,27.1863861 C39.7293333,27.1863861 38.3398058,28.5801776 38.3398058,30.2940594 C38.3398058,32.0079412 39.7293333,33.4017327 41.437972,33.4017327 C43.1466106,33.4017327 44.5361381,32.0079412 44.5361381,30.2940594 M53.8306365,30.2940594 C53.8306365,28.5801776 52.441109,27.1863861 50.7324703,27.1863861 C49.0238317,27.1863861 47.6343042,28.5801776 47.6343042,30.2940594 C47.6343042,32.0079412 49.0238317,33.4017327 50.7324703,33.4017327 C52.441109,33.4017327 53.8306365,32.0079412 53.8306365,30.2940594 M60.0269687,27.1863861 C58.3183301,27.1863861 56.9288026,28.5801776 56.9288026,30.2940594 C56.9288026,32.0079412 58.3183301,33.4017327 60.0269687,33.4017327 C61.7356073,33.4017327 63.1251348,32.0079412 63.1251348,30.2940594 C63.1251348,28.5801776 61.7356073,27.1863861 60.0269687,27.1863861 M94.1067961,41.1709158 C94.1067961,47.1687252 89.2411262,52.0477723 83.2632147,52.0477723 L56.5213937,52.0477723 L45.9349601,74.4665272 C45.2905415,75.8743032 43.7414585,76.9091584 42.2605351,76.9091584 L35.2416397,76.9091584 C33.5330011,76.9091584 32.1434736,75.515367 32.1434736,73.8014851 L32.1434736,44.2785891 C32.1434736,43.4208713 32.8359137,42.7247525 33.6925566,42.7247525 L52.2815534,42.7247525 C53.1381963,42.7247525 53.8306365,43.4208713 53.8306365,44.2785891 C53.8306365,45.1363069 53.1381963,45.8324257 52.2815534,45.8324257 L35.2416397,45.8324257 L35.2416397,73.8014851 L42.2605351,73.8014851 C42.4851521,73.8014851 42.9576224,73.5233484 43.1295707,73.1535353 L57.0790636,43.613547 C57.4461963,42.8381825 58.372548,42.5087692 59.1408932,42.8739208 C59.9138857,43.2421801 60.2453894,44.1682667 59.8767077,44.9436312 L57.9914736,48.940099 L83.2632147,48.940099 C87.5340367,48.940099 91.00863,45.4548434 91.00863,41.1709158 C91.00863,36.8869882 87.5340367,33.4017327 83.2632147,33.4017327 C82.5057131,33.4017327 81.8597454,32.8516745 81.7358188,32.1042791 C81.6800518,31.7795272 80.2905243,24.0787129 73.9687163,24.0787129 L69.7552104,24.0787129 L70.7992923,28.2631949 C71.0316548,28.833453 71.7705674,30.2940594 73.2267055,30.2940594 L77.0668824,30.2940594 C77.9235254,30.2940594 78.6159655,30.9901782 78.6159655,31.847896 C78.6159655,32.7056139 77.9235254,33.4017327 77.0668824,33.4017327 L73.2267055,33.4017327 C70.8953355,33.4017327 68.8443495,31.82925 67.8746235,29.2964963 C67.8529364,29.2390043 67.8343474,29.1784047 67.8188565,29.1178051 L66.5640992,24.0787129 L12.6591068,24.0787129 C12.0255318,24.0787129 11.4570183,23.6918075 11.2200086,23.1029035 L8.1218425,15.3337203 C7.95918878,14.9033075 7.57811435,14.7556931 7.35814455,14.7556931 L4.25997843,14.7556931 L4.25997843,25.6325495 C4.25997843,38.7018694 14.4668867,48.940099 27.4962244,48.940099 C28.3528673,48.940099 29.0453074,49.6362178 29.0453074,50.4939356 C29.0453074,51.3516535 28.3528673,52.0477723 27.4962244,52.0477723 C12.7303646,52.0477723 1.1618123,40.4452741 1.1618123,25.6325495 L1.1618123,14.7556931 C1.1618123,13.0418113 2.55133981,11.6480198 4.25997843,11.6480198 L7.35814455,11.6480198 C8.96144552,11.6480198 10.4268781,12.6751058 11.0077843,14.2025272 L13.707836,20.9710396 L73.9687163,20.9710396 C80.3958619,20.9710396 83.511068,26.5648515 84.5226192,30.3670897 C89.9118792,30.9948397 94.1067961,35.6019653 94.1067961,41.1709158" id="plane" fill="#FFFFFF"></path>
                    </g>
                    <g id="logo_t" transform="translate(114.695793, 15.250000)" fill="#FFFFFF">
                        <path d="M6.58579288,20.576 L5.05220065,24.586625 C4.84307339,25.1446278 4.55262322,25.5921858 4.18084142,25.9293125 C3.80905963,26.2664392 3.26301331,26.435 2.54268608,26.435 C1.82235886,26.435 1.24726752,26.237377 0.817394822,25.842125 C0.387522122,25.446873 0.335241092,24.7726298 0.660550162,23.819375 L7.84055016,2.8595 C7.95673197,2.48749814 8.20651912,2.15618895 8.58991909,1.8655625 C8.97331907,1.57493605 9.49032037,1.429625 10.1409385,1.429625 C10.7915567,1.429625 11.308558,1.57493605 11.6919579,1.8655625 C12.0753579,2.15618895 12.3251451,2.48749814 12.4413269,2.8595 L19.6910356,23.889125 C19.9698719,24.7726294 19.8943549,25.4178105 19.4644822,25.8246875 C19.0346095,26.2315645 18.4595182,26.435 17.7391909,26.435 C17.0188637,26.4582501 16.4844354,26.3013142 16.13589,25.9641875 C15.7873445,25.6270608 15.5201304,25.2260023 15.3342395,24.761 L13.6612298,20.576 L6.58579288,20.576 Z M12.8247249,16.635125 L10.1409385,7.986125 L7.4571521,16.635125 L12.8247249,16.635125 Z M27.0104531,24.6215 C27.0104531,25.0632522 26.812947,25.4759356 26.4179288,25.8595625 C26.0229106,26.2431894 25.4884823,26.435 24.8146278,26.435 C24.1407733,26.435 23.606345,26.2490019 23.2113269,25.877 C22.8163087,25.5049981 22.6188026,25.0865023 22.6188026,24.6215 L22.6188026,9.2765 C22.6188026,8.57899651 22.8511627,8.06750163 23.31589,7.742 C23.7806172,7.41649837 24.2801915,7.25375 24.8146278,7.25375 C25.3490642,7.25375 25.8486385,7.41068593 26.3133657,7.7245625 C26.7780929,8.03843907 27.0104531,8.5557464 27.0104531,9.2765 L27.0104531,24.6215 Z M22.4445307,3.06875 C22.4445307,2.39449663 22.6710819,1.83068977 23.1241909,1.3773125 C23.5773,0.923935233 24.1407733,0.69725 24.8146278,0.69725 C25.4884823,0.69725 26.0519557,0.923935233 26.5050647,1.3773125 C26.9581738,1.83068977 27.1847249,2.39449663 27.1847249,3.06875 C27.1847249,3.74300337 26.9581738,4.30681023 26.5050647,4.7601875 C26.0519557,5.21356477 25.4884823,5.44025 24.8146278,5.44025 C24.1407733,5.44025 23.5773,5.21356477 23.1241909,4.7601875 C22.6710819,4.30681023 22.4445307,3.74300337 22.4445307,3.06875 Z M40.0459871,10.776125 C39.2327144,10.776125 38.518207,10.9272485 37.9024434,11.2295 C37.2866798,11.5317515 36.7754875,11.9502473 36.3688511,12.485 C35.9622148,13.0197527 35.6601466,13.6591213 35.4626375,14.403125 C35.2651285,15.1471287 35.1663754,15.9492457 35.1663754,16.8095 L35.1663754,24.97025 C35.1663754,25.365502 34.9630603,25.708436 34.5564239,25.9990625 C34.1497876,26.289689 33.6327863,26.435 33.0054045,26.435 C32.3780228,26.435 31.8610215,26.2838765 31.4543851,25.981625 C31.0477488,25.6793735 30.8444337,25.3422519 30.8444337,24.97025 L30.8444337,8.7185 C30.8444337,8.29999791 31.0593668,7.9512514 31.4892395,7.67225 C31.9191122,7.39324861 32.4361135,7.25375 33.0402589,7.25375 C33.6444043,7.25375 34.1497876,7.39324861 34.5564239,7.67225 C34.9630603,7.9512514 35.1663754,8.29999791 35.1663754,8.7185 L35.1663754,11.15975 C35.3755027,10.7412479 35.6252898,10.2878774 35.9157443,9.799625 C36.2061989,9.31137256 36.5547391,8.85218965 36.9613754,8.4220625 C37.3680117,7.99193535 37.832732,7.63156395 38.3555502,7.3409375 C38.8783683,7.05031105 39.4766957,6.905 40.1505502,6.905 C40.4990956,6.905 40.7779278,6.96312442 40.987055,7.079375 C41.1961823,7.19562558 41.3588344,7.33512419 41.4750162,7.497875 C41.591198,7.66062581 41.666715,7.83499907 41.7015696,8.021 C41.7364241,8.20700093 41.7538511,8.38137419 41.7538511,8.544125 C41.7538511,9.42762942 41.608626,10.0204985 41.3181715,10.32275 C41.027717,10.6250015 40.6036597,10.776125 40.0459871,10.776125 Z" id="Air"></path>
                        <path d="M65.2921683,26.78375 C63.5494411,26.78375 61.9287292,26.4931279 60.4299838,25.911875 C58.9312385,25.3306221 57.6358307,24.4820056 56.5437217,23.366 C55.4516127,22.2499944 54.6034982,20.8956955 53.9993528,19.3030625 C53.3952073,17.7104295 53.1047572,15.9027601 53.1279935,13.88 C53.1512299,11.8572399 53.4591071,10.0553829 54.0516343,8.474375 C54.6441615,6.8933671 55.445804,5.55650546 56.4565858,4.46375 C57.4673675,3.37099454 58.6640222,2.53400291 60.0465858,1.95275 C61.4291493,1.37149709 62.9220632,1.080875 64.5253722,1.080875 C65.6639539,1.080875 66.7095745,1.22618605 67.6622654,1.5168125 C68.6149562,1.80743895 69.4398347,2.16781035 70.1369256,2.5979375 C70.8340164,3.02806465 71.3800627,3.48143512 71.7750809,3.9580625 C72.1700991,4.43468988 72.3908412,4.84737326 72.4373139,5.196125 C72.4837866,5.49837651 72.4663596,5.75412395 72.3850324,5.963375 C72.3037051,6.17262605 72.2398061,6.32374954 72.1933333,6.41675 C72.1236242,6.53300058 71.9958262,6.67249919 71.8099353,6.83525 C71.6240444,6.99800081 71.4033022,7.12587454 71.1477023,7.218875 C70.7294477,7.40487593 70.3228175,7.39325105 69.9277994,7.184 C69.5327812,6.97474895 69.0912969,6.71318907 68.6033333,6.3993125 C68.1153697,6.08543593 67.5402784,5.78318895 66.8780421,5.4925625 C66.2158058,5.20193605 65.3967363,5.056625 64.4208091,5.056625 C63.3287,5.056625 62.3585965,5.30656 61.5104693,5.8064375 C60.662342,6.306315 59.9536436,6.96312093 59.3843528,7.776875 C58.8150619,8.59062907 58.3851956,9.52643221 58.0947411,10.5843125 C57.8042866,11.6421928 57.6590615,12.7407443 57.6590615,13.88 C57.6590615,15.0192557 57.8217136,16.1294321 58.1470227,17.2105625 C58.4723317,18.2916929 58.954479,19.2507458 59.593479,20.08775 C60.2324789,20.9247542 61.0283124,21.593185 61.9810032,22.0930625 C62.9336941,22.59294 64.0374047,22.8312501 65.2921683,22.808 C65.9427864,22.7847499 66.5120688,22.7091881 67.0000324,22.5813125 C67.487996,22.4534369 67.9178622,22.2965009 68.289644,22.1105 C68.6614258,21.9244991 68.998348,21.7210636 69.3004207,21.5001875 C69.6024934,21.2793114 69.9045616,21.0526262 70.2066343,20.820125 C70.7875434,20.4016229 71.3568257,20.3202487 71.9144984,20.576 C72.4489347,20.785251 72.8090929,21.0758731 72.9949838,21.447875 C73.1808747,21.8198769 73.2505828,22.203498 73.20411,22.59875 C73.1576373,22.8777514 72.9485132,23.2555601 72.5767314,23.7321875 C72.2049496,24.2088149 71.6821393,24.6738102 71.0082848,25.1271875 C70.3344303,25.5805648 69.5153608,25.9699984 68.5510518,26.2955 C67.5867428,26.6210016 66.5004591,26.78375 65.2921683,26.78375 Z M83.7998382,6.905 C85.4031472,6.905 86.774072,7.16074744 87.9126537,7.67225 C89.0512355,8.18375256 89.974867,8.89287047 90.6835761,9.799625 C91.3922851,10.7063795 91.9150954,11.7758688 92.2520227,13.008125 C92.5889499,14.2403812 92.757411,15.5656179 92.757411,16.983875 C92.757411,18.4253822 92.5889499,19.7448065 92.2520227,20.9421875 C91.9150954,22.1395685 91.3806671,23.1683707 90.6487217,24.028625 C89.9167763,24.8888793 88.9873357,25.5631226 87.8603722,26.051375 C86.7334086,26.5396274 85.3799108,26.78375 83.7998382,26.78375 C82.2197656,26.78375 80.8720768,26.533815 79.7567314,26.0339375 C78.641386,25.53406 77.7235635,24.8481919 77.0032362,23.9763125 C76.282909,23.1044331 75.7600987,22.064006 75.4347896,20.855 C75.1094806,19.645994 74.9468285,18.3323821 74.9468285,16.914125 C74.9468285,15.4958679 75.1094806,14.1764436 75.4347896,12.9558125 C75.7600987,11.7351814 76.271291,10.677317 76.9683819,9.7821875 C77.6654727,8.88705802 78.5774863,8.18375256 79.7044498,7.67225 C80.8314134,7.16074744 82.1965292,6.905 83.7998382,6.905 Z M83.7998382,22.912625 C85.3566745,22.912625 86.5010481,22.3953177 87.2329935,21.3606875 C87.9649389,20.3260573 88.3309061,18.8671344 88.3309061,16.983875 C88.3309061,15.1006156 87.9823659,13.5951931 87.2852751,12.4675625 C86.5881842,11.3399319 85.4031475,10.776125 83.7301294,10.776125 C82.8936204,10.776125 82.19654,10.9388734 81.6388673,11.264375 C81.0811946,11.5898766 80.6339014,12.0316222 80.2969741,12.589625 C79.9600469,13.1476278 79.7218777,13.7986213 79.5824595,14.542625 C79.4430414,15.2866287 79.3733333,16.0771208 79.3733333,16.914125 C79.3733333,18.7973844 79.7218735,20.2679322 80.4189644,21.3258125 C81.1160553,22.3836928 82.2430019,22.912625 83.7998382,22.912625 Z M118.793625,15.240125 C118.793625,14.4961213 118.747153,13.8451278 118.654207,13.287125 C118.561262,12.7291222 118.392801,12.2641269 118.148819,11.892125 C117.904837,11.5201231 117.562106,11.2411259 117.120615,11.055125 C116.679124,10.8691241 116.12146,10.776125 115.447605,10.776125 C114.889932,10.776125 114.372931,10.8342494 113.896586,10.9505 C113.42024,11.0667506 113.007801,11.2818109 112.659256,11.5956875 C112.31071,11.9095641 112.037687,12.3454972 111.840178,12.9035 C111.642669,13.4615028 111.543916,14.1822456 111.543916,15.06575 L111.543916,24.97025 C111.543916,25.3887521 111.340601,25.7316862 110.933964,25.9990625 C110.527328,26.2664388 109.998709,26.4117499 109.348091,26.435 C108.697472,26.4582501 108.168853,26.324564 107.762217,26.0339375 C107.35558,25.743311 107.152265,25.3887521 107.152265,24.97025 L107.152265,15.240125 C107.152265,13.7521176 106.925714,12.6361287 106.472605,11.892125 C106.019496,11.1481213 105.119101,10.776125 103.771392,10.776125 C103.213719,10.776125 102.696718,10.8342494 102.220372,10.9505 C101.744027,11.0667506 101.337397,11.2818109 101.000469,11.5956875 C100.663542,11.9095641 100.396328,12.3454972 100.198819,12.9035 C100.00131,13.4615028 99.9025566,14.1822456 99.9025566,15.06575 L99.9025566,24.97025 C99.9025566,25.3887521 99.6992415,25.7374986 99.2926052,26.0165 C98.8859688,26.2955014 98.3341135,26.435 97.6370227,26.435 C96.9399318,26.435 96.4113125,26.2955014 96.0511489,26.0165 C95.6909853,25.7374986 95.5109061,25.3887521 95.5109061,24.97025 L95.5109061,8.544125 C95.5109061,8.12562291 95.6851763,7.8059386 96.0337217,7.5850625 C96.3822671,7.3641864 96.9515494,7.25375 97.7415858,7.25375 C98.5316221,7.25375 99.0776684,7.37581128 99.3797411,7.6199375 C99.6818138,7.86406372 99.8328479,8.17212314 99.8328479,8.544125 L99.8328479,10.3925 C100.227866,9.41599512 100.802957,8.59062837 101.558139,7.916375 C102.313321,7.24212163 103.213716,6.905 104.259353,6.905 C105.723244,6.905 106.879235,7.2246843 107.727362,7.8640625 C108.57549,8.5034407 109.197053,9.41599407 109.592071,10.60175 C110.196217,9.55549477 111.026904,8.67781605 112.084159,7.9686875 C113.141413,7.25955895 114.367113,6.905 115.761294,6.905 C116.62104,6.905 117.474963,7.04449861 118.323091,7.3235 C119.171218,7.6025014 119.926388,8.01518477 120.588625,8.5615625 C121.250861,9.10794023 121.785289,9.77637105 122.191926,10.566875 C122.598562,11.357379 122.801877,12.2757448 122.801877,13.322 L122.801877,24.97025 C122.801877,25.3422519 122.714742,25.673561 122.540469,25.9641875 C122.366197,26.254814 121.860813,26.4117499 121.024304,26.435 C120.187795,26.4582501 119.606895,26.3594386 119.281586,26.1385625 C118.956277,25.9176864 118.793625,25.5282528 118.793625,24.97025 L118.793625,15.240125 Z M149.500324,15.240125 C149.500324,14.4961213 149.453852,13.8451278 149.360906,13.287125 C149.267961,12.7291222 149.0995,12.2641269 148.855518,11.892125 C148.611536,11.5201231 148.268805,11.2411259 147.827314,11.055125 C147.385823,10.8691241 146.828159,10.776125 146.154304,10.776125 C145.596632,10.776125 145.07963,10.8342494 144.603285,10.9505 C144.126939,11.0667506 143.7145,11.2818109 143.365955,11.5956875 C143.017409,11.9095641 142.744386,12.3454972 142.546877,12.9035 C142.349368,13.4615028 142.250615,14.1822456 142.250615,15.06575 L142.250615,24.97025 C142.250615,25.3887521 142.0473,25.7316862 141.640663,25.9990625 C141.234027,26.2664388 140.705408,26.4117499 140.05479,26.435 C139.404172,26.4582501 138.875552,26.324564 138.468916,26.0339375 C138.06228,25.743311 137.858964,25.3887521 137.858964,24.97025 L137.858964,15.240125 C137.858964,13.7521176 137.632413,12.6361287 137.179304,11.892125 C136.726195,11.1481213 135.8258,10.776125 134.478091,10.776125 C133.920418,10.776125 133.403417,10.8342494 132.927071,10.9505 C132.450726,11.0667506 132.044096,11.2818109 131.707168,11.5956875 C131.370241,11.9095641 131.103027,12.3454972 130.905518,12.9035 C130.708009,13.4615028 130.609256,14.1822456 130.609256,15.06575 L130.609256,24.97025 C130.609256,25.3887521 130.405941,25.7374986 129.999304,26.0165 C129.592668,26.2955014 129.040813,26.435 128.343722,26.435 C127.646631,26.435 127.118012,26.2955014 126.757848,26.0165 C126.397684,25.7374986 126.217605,25.3887521 126.217605,24.97025 L126.217605,8.544125 C126.217605,8.12562291 126.391875,7.8059386 126.740421,7.5850625 C127.088966,7.3641864 127.658248,7.25375 128.448285,7.25375 C129.238321,7.25375 129.784367,7.37581128 130.08644,7.6199375 C130.388513,7.86406372 130.539547,8.17212314 130.539547,8.544125 L130.539547,10.3925 C130.934565,9.41599512 131.509656,8.59062837 132.264838,7.916375 C133.02002,7.24212163 133.920415,6.905 134.966052,6.905 C136.429943,6.905 137.585934,7.2246843 138.434061,7.8640625 C139.282189,8.5034407 139.903752,9.41599407 140.29877,10.60175 C140.902916,9.55549477 141.733603,8.67781605 142.790858,7.9686875 C143.848112,7.25955895 145.073812,6.905 146.467994,6.905 C147.327739,6.905 148.181662,7.04449861 149.02979,7.3235 C149.877917,7.6025014 150.633087,8.01518477 151.295324,8.5615625 C151.95756,9.10794023 152.491988,9.77637105 152.898625,10.566875 C153.305261,11.357379 153.508576,12.2757448 153.508576,13.322 L153.508576,24.97025 C153.508576,25.3422519 153.421441,25.673561 153.247168,25.9641875 C153.072896,26.254814 152.567512,26.4117499 151.731003,26.435 C150.894494,26.4582501 150.313594,26.3594386 149.988285,26.1385625 C149.662976,25.9176864 149.500324,25.5282528 149.500324,24.97025 L149.500324,15.240125 Z M161.246246,18.030125 C161.246246,18.7741287 161.292718,19.4367471 161.385663,20.018 C161.478609,20.5992529 161.64707,21.087498 161.891052,21.48275 C162.135034,21.878002 162.477765,22.180249 162.919256,22.3895 C163.360747,22.598751 163.918411,22.703375 164.592265,22.703375 C165.149938,22.703375 165.666939,22.6336257 166.143285,22.494125 C166.61963,22.3546243 167.02626,22.1163142 167.363188,21.7791875 C167.700115,21.4420608 167.967329,20.9828779 168.164838,20.401625 C168.362347,19.8203721 168.4611,19.0880044 168.4611,18.2045 L168.4611,8.7185 C168.4611,8.32324802 168.664415,7.98031395 169.071052,7.6896875 C169.477688,7.39906105 169.994689,7.25375 170.622071,7.25375 C171.249453,7.25375 171.766454,7.40487349 172.173091,7.707125 C172.579727,8.00937651 172.783042,8.34649814 172.783042,8.7185 L172.783042,24.97025 C172.783042,25.3887521 172.568109,25.7374986 172.138236,26.0165 C171.708364,26.2955014 171.191362,26.435 170.587217,26.435 C169.983071,26.435 169.477688,26.2955014 169.071052,26.0165 C168.664415,25.7374986 168.4611,25.3887521 168.4611,24.97025 L168.4611,23.2265 C168.251973,23.6450021 168.002186,24.051873 167.711731,24.447125 C167.421277,24.842377 167.072737,25.2027484 166.6661,25.52825 C166.259464,25.8537516 165.788935,26.1153115 165.254498,26.3129375 C164.720062,26.5105635 164.127544,26.609375 163.476926,26.609375 C162.570707,26.609375 161.722593,26.4582515 160.932557,26.156 C160.14252,25.8537485 159.451249,25.4178153 158.858722,24.8481875 C158.266194,24.2785597 157.795665,23.5636293 157.44712,22.703375 C157.098574,21.8431207 156.924304,20.8550056 156.924304,19.739 L156.924304,8.7185 C156.924304,8.29999791 157.116001,7.9512514 157.499401,7.67225 C157.882801,7.39324861 158.399803,7.25375 159.050421,7.25375 C159.701039,7.25375 160.229658,7.39324861 160.636294,7.67225 C161.042931,7.9512514 161.246246,8.29999791 161.246246,8.7185 L161.246246,18.030125 Z M187.735566,15.275 C187.735566,14.5309963 187.689094,13.8741903 187.596149,13.3045625 C187.503203,12.7349347 187.334742,12.2641269 187.090761,11.892125 C186.846779,11.5201231 186.504048,11.2411259 186.062557,11.055125 C185.621066,10.8691241 185.063401,10.776125 184.389547,10.776125 C183.831874,10.776125 183.314873,10.8342494 182.838528,10.9505 C182.362182,11.0667506 181.955552,11.2818109 181.618625,11.5956875 C181.281697,11.9095641 181.014483,12.3513097 180.816974,12.9209375 C180.619465,13.4905653 180.520712,14.2171206 180.520712,15.100625 L180.520712,24.97025 C180.520712,25.365502 180.317397,25.708436 179.910761,25.9990625 C179.504124,26.289689 178.987123,26.435 178.359741,26.435 C177.732359,26.435 177.215358,26.2838765 176.808722,25.981625 C176.402085,25.6793735 176.19877,25.3422519 176.19877,24.97025 L176.19877,8.7185 C176.19877,8.29999791 176.413703,7.9512514 176.843576,7.67225 C177.273449,7.39324861 177.79045,7.25375 178.394595,7.25375 C178.998741,7.25375 179.504124,7.39324861 179.910761,7.67225 C180.317397,7.9512514 180.520712,8.29999791 180.520712,8.7185 L180.520712,10.427375 C180.729839,10.0088729 180.979626,9.59037709 181.270081,9.171875 C181.560535,8.75337291 181.909076,8.37556419 182.315712,8.0384375 C182.722348,7.70131081 183.187069,7.42812605 183.709887,7.218875 C184.232705,7.00962395 184.831032,6.905 185.504887,6.905 C186.50405,6.905 187.404446,7.04449861 188.2061,7.3235 C189.007755,7.6025014 189.693217,8.01518477 190.262508,8.5615625 C190.831799,9.10794023 191.273283,9.79962082 191.586974,10.636625 C191.900665,11.4736292 192.057508,12.4501194 192.057508,13.566125 L192.057508,24.97025 C192.057508,25.3887521 191.865811,25.7374986 191.482411,26.0165 C191.099011,26.2955014 190.58201,26.435 189.931392,26.435 C189.280773,26.435 188.752154,26.2955014 188.345518,26.0165 C187.938881,25.7374986 187.735566,25.3887521 187.735566,24.97025 L187.735566,15.275 Z M200.039159,24.6215 C200.039159,25.0632522 199.841652,25.4759356 199.446634,25.8595625 C199.051616,26.2431894 198.517188,26.435 197.843333,26.435 C197.169479,26.435 196.635051,26.2490019 196.240032,25.877 C195.845014,25.5049981 195.647508,25.0865023 195.647508,24.6215 L195.647508,9.2765 C195.647508,8.57899651 195.879868,8.06750163 196.344595,7.742 C196.809323,7.41649837 197.308897,7.25375 197.843333,7.25375 C198.37777,7.25375 198.877344,7.41068593 199.342071,7.7245625 C199.806798,8.03843907 200.039159,8.5557464 200.039159,9.2765 L200.039159,24.6215 Z M195.473236,3.06875 C195.473236,2.39449663 195.699787,1.83068977 196.152896,1.3773125 C196.606006,0.923935233 197.169479,0.69725 197.843333,0.69725 C198.517188,0.69725 199.080661,0.923935233 199.53377,1.3773125 C199.986879,1.83068977 200.21343,2.39449663 200.21343,3.06875 C200.21343,3.74300337 199.986879,4.30681023 199.53377,4.7601875 C199.080661,5.21356477 198.517188,5.44025 197.843333,5.44025 C197.169479,5.44025 196.606006,5.21356477 196.152896,4.7601875 C195.699787,4.30681023 195.473236,3.74300337 195.473236,3.06875 Z M209.972654,11.543375 L209.972654,19.355375 C209.972654,20.0063783 209.99589,20.5411229 210.042362,20.959625 C210.088835,21.3781271 210.181779,21.7094363 210.321197,21.9535625 C210.460616,22.1976887 210.663931,22.3662495 210.931149,22.45925 C211.198367,22.5522505 211.552716,22.59875 211.994207,22.59875 C212.412462,22.59875 212.83071,22.4825012 213.248964,22.25 C213.667219,22.0174988 214.062231,21.8198758 214.434013,21.657125 C214.852267,21.4711241 215.224044,21.4769365 215.549353,21.6745625 C215.874662,21.8721885 216.037314,22.2964967 216.037314,22.9475 C216.037314,23.5985033 215.909516,24.1390603 215.653916,24.5691875 C215.398316,24.9993147 215.049776,25.3480612 214.608285,25.6154375 C214.166794,25.8828138 213.649793,26.0804369 213.057265,26.2083125 C212.464738,26.3361881 211.819939,26.4117499 211.122848,26.435 C210.356048,26.4582501 209.635732,26.4059381 208.961877,26.2780625 C208.288023,26.1501869 207.701313,25.9002519 207.201731,25.52825 C206.70215,25.1562481 206.307137,24.6505657 206.016683,24.0111875 C205.726228,23.3718093 205.581003,22.5406301 205.581003,21.517625 L205.581003,11.543375 L204.186828,11.543375 C203.53621,11.543375 203.100535,11.3631893 202.87979,11.0028125 C202.659044,10.6424357 202.548673,10.1251284 202.548673,9.450875 C202.548673,8.75337151 202.653235,8.25350151 202.862362,7.95125 C203.07149,7.64899849 203.47812,7.497875 204.082265,7.497875 L205.581003,7.497875 L205.581003,5.684375 C205.581003,4.94037128 205.71461,4.38237686 205.981828,4.010375 C206.249047,3.63837314 206.858992,3.452375 207.811683,3.452375 C208.78761,3.452375 209.391746,3.60931093 209.62411,3.9231875 C209.856474,4.23706407 209.972654,4.69624698 209.972654,5.30075 L209.972654,7.497875 L213.597508,7.497875 C214.410781,7.497875 214.9394,7.65481093 215.183382,7.9686875 C215.427364,8.28256407 215.560971,8.77662163 215.584207,9.450875 C215.607443,10.1251284 215.479645,10.6424357 215.200809,11.0028125 C214.921973,11.3631893 214.341072,11.543375 213.458091,11.543375 L209.972654,11.543375 Z M229.665372,22.529 C229.479481,22.924252 229.235503,23.3136856 228.93343,23.6973125 C228.631358,24.0809394 228.277009,24.4238735 227.870372,24.726125 C227.463736,25.0283765 226.993207,25.2666866 226.45877,25.4410625 C225.924334,25.6154384 225.331816,25.702625 224.681197,25.702625 C223.774979,25.702625 222.926865,25.5631264 222.136828,25.284125 C221.346792,25.0051236 220.655521,24.5924402 220.062994,24.0460625 C219.470466,23.4996848 218.999937,22.8080042 218.651392,21.971 C218.302846,21.1339958 218.128576,20.1575056 218.128576,19.0415 L218.128576,8.7185 C218.128576,8.29999791 218.320273,7.9512514 218.703673,7.67225 C219.087073,7.39324861 219.604074,7.25375 220.254693,7.25375 C220.905311,7.25375 221.43393,7.39324861 221.840566,7.67225 C222.247203,7.9512514 222.450518,8.29999791 222.450518,8.7185 L222.450518,17.332625 C222.450518,18.0766287 222.49699,18.7276222 222.589935,19.285625 C222.682881,19.8436278 222.851342,20.3086231 223.095324,20.680625 C223.339305,21.0526269 223.682037,21.3316241 224.123528,21.517625 C224.565018,21.7036259 225.122683,21.796625 225.796537,21.796625 C226.35421,21.796625 226.871211,21.7385006 227.347557,21.62225 C227.823902,21.5059994 228.230532,21.2909391 228.56746,20.9770625 C228.904387,20.6631859 229.171601,20.2272528 229.36911,19.66925 C229.566619,19.1112472 229.665372,18.3905044 229.665372,17.507 L229.665372,8.7185 C229.665372,8.32324802 229.868687,7.98031395 230.275324,7.6896875 C230.68196,7.39906105 231.198961,7.25375 231.826343,7.25375 C232.453725,7.25375 232.970726,7.40487349 233.377362,7.707125 C233.783999,8.00937651 233.987314,8.34649814 233.987314,8.7185 L233.987314,25.24925 C233.987314,26.3187553 233.766572,27.2894331 233.325081,28.1613125 C232.88359,29.0331919 232.267836,29.7829969 231.477799,30.41075 C230.687763,31.0385031 229.764131,31.5151234 228.706877,31.840625 C227.649623,32.1661266 226.516867,32.3172501 225.308576,32.294 C224.634722,32.294 224.024776,32.2649378 223.478722,32.2068125 C222.932667,32.1486872 222.409857,32.0382508 221.910275,31.8755 C221.410693,31.7127492 220.922737,31.4976888 220.446392,31.2303125 C219.970046,30.9629362 219.476281,30.631627 218.965081,30.236375 C218.407408,29.7946228 218.076295,29.3470648 217.971731,28.8936875 C217.867168,28.4403102 217.884595,27.9927522 218.024013,27.551 C218.23314,26.8999967 218.541017,26.5105631 218.947654,26.3826875 C219.35429,26.2548119 219.755111,26.3652483 220.150129,26.714 C220.707802,27.2022524 221.399074,27.591686 222.223964,27.8823125 C223.048855,28.172939 224.065431,28.3066251 225.273722,28.283375 C225.994049,28.2601249 226.62723,28.1555009 227.173285,27.9695 C227.719339,27.7834991 228.178251,27.5510014 228.550032,27.272 C228.921814,26.9929986 229.200646,26.6791267 229.386537,26.330375 C229.572428,25.9816233 229.665372,25.6328767 229.665372,25.284125 L229.665372,22.529 Z M237.507605,24.237875 C237.507605,23.5636216 237.734156,22.9998148 238.187265,22.5464375 C238.640374,22.0930602 239.203848,21.866375 239.877702,21.866375 C240.551557,21.866375 241.11503,22.0930602 241.568139,22.5464375 C242.021248,22.9998148 242.247799,23.5636216 242.247799,24.237875 C242.247799,24.9121284 242.021248,25.4759352 241.568139,25.9293125 C241.11503,26.3826898 240.551557,26.609375 239.877702,26.609375 C239.203848,26.609375 238.640374,26.3826898 238.187265,25.9293125 C237.734156,25.4759352 237.507605,24.9121284 237.507605,24.237875 Z" id="Community."></path>
                    </g>
                </g>
                <text id="通航集团航空管理平台" font-family="PingFangSC-Regular, PingFang SC" font-size="20" font-weight="normal" fill="#FFFFFF">
                    <tspan x="115.019417" y="75.425">通航集团航空管理平台</tspan>
                </text>
            </g>
            <rect id="#-copy" opacity="0.15" x="0" y="0" width="500" height="140"></rect>
        </g>
    </g>
</svg>