<?xml version="1.0" encoding="UTF-8" standalone="no"?>
<svg width="12px" height="13px" viewBox="0 0 12 13" version="1.1" xmlns="http://www.w3.org/2000/svg" xmlns:xlink="http://www.w3.org/1999/xlink">
    <!-- Generator: Sketch 44.1 (41455) - http://www.bohemiancoding.com/sketch -->
    <title>Group 14</title>
    <desc>Created with Sketch.</desc>
    <defs></defs>
    <g id="Page-1" stroke="none" stroke-width="1" fill="none" fill-rule="evenodd">
        <g id="main" transform="translate(-22.000000, -92.000000)">
            <g id="dashboard" transform="translate(0.000000, 80.000000)">
                <g id="Group-14" transform="translate(20.000000, 10.359367)">
                    <polygon id="Shape" points="0 0 16 0 16 16 0 16"></polygon>
                    <path d="M8,3.00301326 C10.844,3.00301326 13.16,5.32350329 13.16,8.17301696 C13.16,11.0225306 10.844,13.3430207 8,13.3430207 C5.156,13.3430207 2.84,11.0225306 2.84,8.17301696 C2.84,5.32350329 5.156,3.00301326 8,3.00301326 L8,3.00301326 Z M2,8.17301696 C2,11.4914379 4.688,14.1846492 8,14.1846492 C11.312,14.1846492 14,11.4914379 14,8.17301696 C14,4.85459598 11.312,2.16138475 8,2.16138475 C4.688,2.16138475 2,4.85459598 2,8.17301696 Z" id="Shape" fill="#4A4A4A"></path>
                    <path d="M6.98,9.15892464 L5.504,5.53992205 L9.278,7.01878357 L10.754,10.8001002 L6.98,9.15892464 L6.98,9.15892464 Z M8.126,7.68006312 C7.856,7.68006312 7.634,7.90249351 7.634,8.17301696 C7.634,8.44354041 7.856,8.6659708 8.126,8.6659708 C8.396,8.6659708 8.618,8.44354041 8.618,8.17301696 C8.618,7.90249351 8.396,7.68006312 8.126,7.68006312 L8.126,7.68006312 Z" id="Shape" fill="#4A4A4A"></path>
                </g>
            </g>
        </g>
    </g>
</svg>