<?xml version="1.0" encoding="UTF-8" standalone="no"?>
<svg width="12px" height="11px" viewBox="0 0 12 11" version="1.1" xmlns="http://www.w3.org/2000/svg" xmlns:xlink="http://www.w3.org/1999/xlink">
    <!-- Generator: Sketch 44.1 (41455) - http://www.bohemiancoding.com/sketch -->
    <title>平台管理-3</title>
    <desc>Created with Sketch.</desc>
    <defs></defs>
    <g id="Page-1" stroke="none" stroke-width="1" fill="none" fill-rule="evenodd">
        <g id="main" transform="translate(-22.000000, -148.000000)">
            <g id="平台管理" transform="translate(0.000000, 135.272682)">
                <g id="平台管理-3" transform="translate(20.000000, 10.359367)">
                    <polygon id="Shape-Copy" points="0 0 16 0 16 16 0 16"></polygon>
                    <path d="M13.4633998,2.83824518 L2.57062968,2.83824518 C2.24787708,2.83824518 2.00581948,3.08171906 2.00581948,3.3657765 L2.00581948,10.7918538 C2.00581948,11.0759113 2.24787708,11.3193852 2.57062968,11.3193852 L7.51970849,11.3193852 L7.53041209,12.4961986 L4.74918919,12.4961986 C4.50713159,12.4961986 4.34575529,12.6094025 4.34575529,12.8528764 C4.34575529,13.0963502 4.52159036,13.1699355 4.74918919,13.1837207 L11.2445065,13.1837207 C11.4865641,13.1837207 11.6479404,13.0687799 11.6479404,12.825306 C11.6479404,12.5818321 11.4865641,12.4961986 11.2445065,12.4961986 L8.47903065,12.4961986 L8.47397351,11.3193852 L13.4230523,11.3193852 C13.7458049,11.3193852 13.9878625,11.0759113 13.9878625,10.7918538 L13.9878625,3.3657765 C14.02821,3.08171905 13.7458049,2.83824517 13.4633998,2.83824518 Z M13.3789496,10.666326 L2.65507985,10.666326 L2.65507985,3.49130437 L13.3386021,3.49130437 L13.3386021,10.666326 L13.2213422,10.666326 L13.3789496,10.666326 Z" id="Shape" fill="#000000" fill-rule="nonzero"></path>
                    <path d="M4.66849419,6.35601675 L11.3655353,6.35601675 C11.4865641,6.35601675 11.5672591,6.27486338 11.5672591,6.15311266 L11.5672591,5.82847163 C11.5672591,5.7067347 11.4865778,5.62556755 11.3655353,5.62556755 L4.66849419,5.62556755 C4.54746539,5.62556755 4.46677038,5.70672092 4.46677038,5.82847163 L4.46677038,6.11252908 C4.46678408,6.2342798 4.54746539,6.35601674 4.66849419,6.35601675 Z M4.66849419,8.34441891 L11.3655353,8.34441891 C11.4865641,8.34441891 11.5672591,8.26326554 11.5672591,8.14151483 L11.5672591,7.85745738 C11.5672591,7.73572044 11.4865778,7.65455329 11.3655353,7.65455329 L4.66849419,7.65455329 C4.54746539,7.65455329 4.46677038,7.73570666 4.46677038,7.85745738 L4.46677038,8.14151483 C4.46678408,8.26325177 4.54746539,8.34441892 4.66849419,8.34441891 Z" id="Shape" fill="#000000" fill-rule="nonzero"></path>
                </g>
            </g>
        </g>
    </g>
</svg>