<?xml version="1.0" encoding="UTF-8" standalone="no"?>
<svg width="11px" height="11px" viewBox="0 0 11 11" version="1.1" xmlns="http://www.w3.org/2000/svg" xmlns:xlink="http://www.w3.org/1999/xlink">
    <!-- Generator: Sketch 44.1 (41455) - http://www.bohemiancoding.com/sketch -->
    <title>Group 13</title>
    <desc>Created with Sketch.</desc>
    <defs></defs>
    <g id="Page-1" stroke="none" stroke-width="1" fill="none" fill-rule="evenodd">
        <g id="main" transform="translate(-24.000000, -363.000000)">
            <g id="Group-5" transform="translate(0.000000, 325.148967)">
                <g id="公务出行" transform="translate(0.000000, 24.485777)">
                    <g id="Group-13" transform="translate(21.000000, 10.000000)">
                        <polygon id="Shape-Copy-2" points="0 0.421052632 16 0.421052632 16 16.4210526 0 16.4210526"></polygon>
                        <path d="M7.2331342,4.94278601 L7.23413749,7.29832371 L3,10.0015598 L3.01120747,11.1191848 L7.37232223,9.22425769 L7.53425556,12.1088226 L5.75471411,13.2391954 L5.7617249,13.7655479 L8.23198205,13.3229533 L10.371533,13.7992178 L10.3666512,13.2727958 L8.75456115,12.1162096 L8.83825015,9.27593194 L13.1226133,11.1942126 L13.1117117,10.0762866 L8.98575814,7.32451398 L8.98782589,4.95677268 C8.97667959,3.89546483 8.57949941,3.42376216 8.08098702,3.42108756 C7.58615743,3.4164099 7.22612342,3.88140869 7.2330975,4.94277443 L7.2331342,4.94278601 Z" id="Shape" fill="#000000" fill-rule="nonzero"></path>
                    </g>
                </g>
            </g>
        </g>
    </g>
</svg>