<?xml version="1.0" encoding="UTF-8" standalone="no"?>
<svg width="14px" height="14px" viewBox="0 0 14 14" version="1.1" xmlns="http://www.w3.org/2000/svg" xmlns:xlink="http://www.w3.org/1999/xlink">
    <!-- Generator: Sketch 44.1 (41455) - http://www.bohemiancoding.com/sketch -->
    <title>icon</title>
    <desc>Created with Sketch.</desc>
    <defs></defs>
    <g id="Page-1" stroke="none" stroke-width="1" fill="none" fill-rule="evenodd">
        <g id="main" transform="translate(-21.000000, -396.000000)">
            <g id="Group-5" transform="translate(0.000000, 325.148967)">
                <g id="观光飞行" transform="translate(0.000000, 60.272682)">
                    <g id="icon" transform="translate(20.000000, 10.421053)">
                        <polygon id="Shape-Copy-2" points="0 0 16 0 16 16 0 16"></polygon>
                        <g id="直升机-2" transform="translate(1.000000, 1.000000)" fill-rule="nonzero" fill="#000000">
                            <path d="M5.86853448,1.08286543 C5.86853448,0.963028321 5.7674569,0.866292343 5.64224138,0.866292343 L0.226293103,0.866292343 C0.101077586,0.866292343 0,0.963028321 0,1.08286543 C0,1.20270254 0.101077586,1.29943851 0.226293103,1.29943851 L5.64224138,1.29943851 C5.7674569,1.29943851 5.86853448,1.20270254 5.86853448,1.08286543 Z M13.7737069,0.866292343 L8.35775862,0.866292343 C8.2325431,0.866292343 8.13146552,0.963028321 8.13146552,1.08286543 C8.13146552,1.20270254 8.2325431,1.29943851 8.35775862,1.29943851 L13.7737069,1.29943851 C13.8989224,1.29943851 14,1.20270254 14,1.08286543 C14,0.963028321 13.8989224,0.866292343 13.7737069,0.866292343 Z M9.84525862,7.34904671 C9.84525862,6.5621645 9.56163793,5.88790029 9.02456897,5.3970013 C8.51767241,4.93353489 7.81767241,4.67797865 7.05431034,4.67797865 C6.29094828,4.67797865 5.59094828,4.93353489 5.08405172,5.3970013 C4.54698276,5.88790029 4.26336207,6.56360832 4.26336207,7.34904671 C4.26336207,7.46888382 4.36443966,7.56561979 4.48965517,7.56561979 L9.61896552,7.56561979 C9.74418103,7.56561979 9.84525862,7.46888382 9.84525862,7.34904671 Z M5.39633621,5.71031036 C5.75689655,5.38111927 6.23814655,5.17754057 6.7737069,5.12556303 L6.7737069,7.13247362 L4.725,7.13247362 C4.77025862,6.56072068 5.00107759,6.07270932 5.39633621,5.71031036 Z M7.2262931,7.13247362 L7.2262931,5.1169001 C7.80409483,5.1515518 8.32758621,5.35946196 8.71228448,5.71031036 C9.10905172,6.07270932 9.33836207,6.56072068 9.38512931,7.13247362 L7.2262931,7.13247362 Z M8.35323276,8.4506818 C8.22801724,8.4506818 8.12693966,8.54741778 8.12693966,8.66725489 C8.12693966,9.23467637 7.64568966,9.69525514 7.05280172,9.69525514 C6.45991379,9.69525514 5.97866379,9.23467637 5.97866379,8.66725489 C5.97866379,8.54741778 5.87758621,8.4506818 5.75237069,8.4506818 C5.62715517,8.4506818 5.52607759,8.54741778 5.52607759,8.66725489 C5.52607759,9.47290677 6.21099138,10.1284013 7.05280172,10.1284013 C7.89461207,10.1284013 8.57952586,9.47290677 8.57952586,8.66725489 C8.57952586,8.54741778 8.47844828,8.4506818 8.35323276,8.4506818 Z" id="Shape"></path>
                            <path d="M11.0325431,10.5860924 C10.8017241,10.5860924 10.5920259,10.669834 10.4321121,10.8055532 L9.68685345,10.1413957 C9.77887931,10.066317 9.86788793,9.98690689 9.95387931,9.90460912 C10.7112069,9.16681681 11.1275862,8.18213118 11.1275862,7.13247362 C11.1275862,6.4076757 10.7398707,5.59191707 9.975,4.70685506 C9.31271552,3.94163016 8.49956897,3.26880977 7.94590517,2.82988832 C7.77693966,2.69561301 7.67887931,2.49925341 7.67887931,2.28989943 L7.67887931,0.691590054 C7.67887931,0.314752885 7.42392241,0.0346516937 7.06336207,0.00433146171 C7.0512931,0.00288764114 7.03922414,0.00144382057 7.02715517,0.00144382057 L6.99698276,0.00144382057 C6.98491379,0.00144382057 6.97284483,0.00288764114 6.96077586,0.00433146171 C6.59418103,0.0346516937 6.32413793,0.320528167 6.32413793,0.691590054 L6.32413793,2.35198371 C6.32413793,2.51224779 6.25172414,2.66096131 6.125,2.75914111 C4.9512931,3.66730425 2.9825431,5.44464737 2.9825431,7.1310298 C2.9825431,8.17924354 3.40797414,9.16392917 4.18189655,9.90460912 C4.21206897,9.93348553 4.24224138,9.96236194 4.27392241,9.98979453 L3.35818966,10.8055532 C3.19827586,10.669834 2.98857759,10.5860924 2.75775862,10.5860924 C2.25991379,10.5860924 1.85409483,10.9744802 1.85409483,11.450941 C1.85409483,11.9274017 2.25991379,12.3157895 2.75775862,12.3157895 C3.25560345,12.3157895 3.66142241,11.9274017 3.66142241,11.450941 C3.66142241,11.3527612 3.64331897,11.2589128 3.61314655,11.1708398 L4.62392241,10.2713395 C5.32844828,10.7795644 6.18232759,11.0538903 7.08146552,11.0538903 C7.89461207,11.0538903 8.66702586,10.8272105 9.32327586,10.4070587 L10.181681,11.1708398 C10.15,11.2589128 10.1334052,11.3527612 10.1334052,11.450941 C10.1334052,11.9274017 10.5392241,12.3157895 11.037069,12.3157895 C11.5349138,12.3157895 11.9407328,11.9274017 11.9407328,11.450941 C11.9362069,10.9744802 11.5303879,10.5860924 11.0325431,10.5860924 Z M2.75625,11.8826433 C2.50732759,11.8826433 2.30517241,11.6891713 2.30517241,11.450941 C2.30517241,11.2127106 2.50732759,11.0192386 2.75625,11.0192386 C3.00517241,11.0192386 3.20732759,11.2127106 3.20732759,11.450941 C3.20732759,11.6891713 3.00517241,11.8826433 2.75625,11.8826433 L2.75625,11.8826433 Z M4.50021552,9.59851916 C3.81228448,8.94013698 3.43362069,8.06373789 3.43362069,7.1310298 C3.43362069,6.48708583 3.78211207,5.74351823 4.47155172,4.91765287 C5.09612069,4.16830999 5.8700431,3.51425927 6.40711207,3.09699513 C6.64094828,2.91651755 6.77521552,2.64507929 6.77521552,2.35198371 L6.77521552,0.691590054 C6.77521552,0.542876535 6.86875,0.441809095 7.01056034,0.434589992 C7.16896552,0.441809095 7.22478448,0.570309126 7.22478448,0.691590054 L7.22478448,2.28989943 C7.22478448,2.62775344 7.38168103,2.94539397 7.65474138,3.16196705 C8.19482759,3.58933794 8.98685345,4.24338866 9.62349138,4.98118097 C10.3189655,5.78683285 10.6719828,6.51018696 10.6719828,7.1310298 C10.6719828,8.06662553 10.3008621,8.94446844 9.62801724,9.59996298 C8.95366379,10.2583452 8.04698276,10.6207441 7.07693966,10.6207441 C6.10387931,10.6207441 5.18965517,10.2583452 4.50021552,9.59851916 L4.50021552,9.59851916 Z M11.0325431,11.8826433 C10.7836207,11.8826433 10.5814655,11.6891713 10.5814655,11.450941 C10.5814655,11.2127106 10.7836207,11.0192386 11.0325431,11.0192386 C11.2814655,11.0192386 11.4836207,11.2127106 11.4836207,11.450941 C11.4836207,11.6891713 11.2814655,11.8826433 11.0325431,11.8826433 Z" id="Shape"></path>
                        </g>
                    </g>
                </g>
            </g>
        </g>
    </g>
</svg>