<?xml version="1.0" encoding="UTF-8" standalone="no"?>
<svg width="11px" height="11px" viewBox="0 0 11 11" version="1.1" xmlns="http://www.w3.org/2000/svg" xmlns:xlink="http://www.w3.org/1999/xlink">
    <!-- Generator: Sketch 44.1 (41455) - http://www.bohemiancoding.com/sketch -->
    <title>Group 15</title>
    <desc>Created with Sketch.</desc>
    <defs></defs>
    <g id="Page-1" stroke="none" stroke-width="1" fill="none" fill-rule="evenodd">
        <g id="main" transform="translate(-23.000000, -434.000000)">
            <g id="Group-5" transform="translate(0.000000, 325.148967)">
                <g id="通勤航旅" transform="translate(0.000000, 96.059587)">
                    <g id="Group-15" transform="translate(20.000000, 10.000000)">
                        <polygon id="Shape-Copy-2" points="0 -1.42108547e-13 16 -1.42108547e-13 16 16 0 16"></polygon>
                        <g id="飞行-01" transform="translate(3.000000, 3.000000)" fill-rule="nonzero" fill="#000000">
                            <path d="M3.85658486,10.4120935 L3.84159862,10.4120935 C3.66170069,10.3961871 3.53427982,10.3290125 3.44575,10.21693 L2.06224771,8.46787997 L0.217943807,7.15582696 C0.112649083,7.0950125 0.0312591743,6.96631125 0.0134220183,6.8156933 C-0.00193004587,6.68523022 0.0444667431,6.55264294 0.144412844,6.44233472 L0.872204128,5.74404922 C0.967154817,5.65495797 1.09921789,5.60403976 1.23699541,5.60403976 C1.27090367,5.60403976 1.32445298,5.60403976 1.38298509,5.62419462 L2.65940138,5.95476941 L4.21851261,4.47617948 L0.755858945,2.67268762 C0.619860092,2.6009148 0.524909404,2.47576221 0.493145642,2.32761833 C0.47281078,2.15896971 0.528126147,2.00517796 0.634493119,1.9037039 L1.5875195,1.00070844 C1.7385172,0.874481257 1.92339794,0.834184021 2.08187615,0.879092011 L6.86806193,1.964156 L7.9510195,0.937070049 C8.53174885,0.386228701 9.36771101,0.00191177584 9.98485894,0.00191177584 C10.2871823,0.00191177584 10.5402454,0.0910030292 10.7179989,0.25930178 C11.0153268,0.541444907 11.0706548,1.0063688 10.8729071,1.56818099 C10.711578,2.02885649 10.3860436,2.52029534 10.0034025,2.8834078 L8.9118922,3.9182783 L10.0687339,8.69097047 C10.1154839,8.86774101 10.0430252,9.06291708 9.88419381,9.18383378 L8.92473394,9.86583794 C8.84835206,9.92489057 8.7373555,9.95988981 8.61991284,9.95988981 C8.59777408,9.95988981 8.55388761,9.95988981 8.49641514,9.94433321 C8.34400459,9.90825937 8.22299197,9.81528209 8.1630344,9.68693071 L6.27090826,6.42216736 L4.71216284,7.90110716 L5.06480619,9.12548088 C5.11156881,9.28705718 5.06802294,9.45428133 4.94559748,9.58404468 L4.22065711,10.2724214 C4.12677867,10.3611878 3.9947156,10.4120935 3.85658486,10.4120935 Z M0.574182339,6.76442522 L2.47415482,8.12810867 L3.86156766,9.88210678 L4.53439679,9.24428588 L4.10321445,7.74802764 L6.39938876,5.57010261 L8.63347362,9.42777887 L9.5329633,8.78713404 L8.31330046,3.75527755 L9.61791055,2.51782128 C9.94379817,2.2091632 10.2200596,1.79302083 10.3560585,1.40516774 C10.4809817,1.04877774 10.4724289,0.757450587 10.3325069,0.624863309 C10.2586227,0.554514956 10.1415459,0.518803484 9.98484633,0.518803484 C9.50833945,0.518803484 8.81551606,0.848316168 8.33614564,1.30229421 L7.03796904,2.53409012 L1.95623394,1.38183908 L1.05211468,2.23922681 L5.11763647,4.35492541 L2.82144954,6.53248807 L1.24486697,6.12413025 L0.574182339,6.76442522 Z" id="Shape"></path>
                        </g>
                    </g>
                </g>
            </g>
        </g>
    </g>
</svg>