<?xml version="1.0" encoding="UTF-8" standalone="no"?>
<svg width="11px" height="10px" viewBox="0 0 11 10" version="1.1" xmlns="http://www.w3.org/2000/svg" xmlns:xlink="http://www.w3.org/1999/xlink">
    <!-- Generator: Sketch 44.1 (41455) - http://www.bohemiancoding.com/sketch -->
    <title>icon</title>
    <desc>Created with Sketch.</desc>
    <defs></defs>
    <g id="Page-1" stroke="none" stroke-width="1" fill="none" fill-rule="evenodd">
        <g id="main" transform="translate(-23.000000, -471.000000)">
            <g id="Group-5" transform="translate(0.000000, 325.148967)">
                <g id="航校培训" transform="translate(0.000000, 131.846492)">
                    <g id="icon" transform="translate(20.000000, 10.421053)">
                        <polygon id="Shape-Copy-2" points="0 0 16 0 16 16 0 16"></polygon>
                        <g id="赞服务_分类_培训" transform="translate(3.000000, 3.842105)" fill-rule="nonzero" fill="#000000">
                            <path d="M3.45221854,4.77831854 C2.41029854,4.77831854 1.56275122,3.99723183 1.56275122,3.0369416 C1.56275122,2.07633475 2.41029854,1.29493143 3.45221854,1.29493143 C4.49379512,1.29493143 5.34134244,2.07633475 5.34134244,3.0369416 C5.34134244,3.99723183 4.49379512,4.77831854 3.45221854,4.77831854 Z M3.45221854,1.92815941 C2.78908488,1.92815941 2.24958049,2.42555998 2.24958049,3.0369416 C2.24958049,3.6480066 2.78908488,4.14509056 3.45221854,4.14509056 C4.1153522,4.14509056 4.65451317,3.6480066 4.65451317,3.0369416 C4.65451317,2.42555998 4.1153522,1.92815941 3.45221854,1.92815941 Z" id="Shape"></path>
                            <path d="M5.38529951,9.46135605 L4.47834146,9.46135605 C4.28843317,9.46135605 4.13492683,9.31951299 4.13492683,9.14474206 C4.13492683,8.96997114 4.28843317,8.82812807 4.47834146,8.82812807 L5.38529951,8.82812807 C5.69299902,8.82812807 6.2088078,8.7562567 6.2088078,8.27658651 L6.21018146,7.08896743 C6.2204839,6.3480907 6.16141659,5.71802886 5.34305951,5.5198285 L4.5192078,5.5198285 C4.32929951,5.5198285 4.17579317,5.37798543 4.17579317,5.20321451 C4.17579317,5.02844359 4.32929951,4.88660052 4.5192078,4.88660052 L5.38529951,4.88660052 C5.41208585,4.88660052 5.4388722,4.88945005 5.46497171,4.8951491 C6.92311024,5.21619569 6.90525268,6.48645101 6.89701073,7.09688278 L6.89563707,8.27658651 C6.89563707,8.9962501 6.30290341,9.46135605 5.38529951,9.46135605 Z" id="Shape"></path>
                            <path d="M2.42609561,9.46135605 L1.51948098,9.46135605 C0.601533659,9.46135605 0.00845658537,8.9962501 0.00845658537,8.27658651 L0.00708292683,7.09751601 C-0.00150243902,6.48676762 -0.0190165854,5.21619569 1.43980878,4.8951491 C1.46590829,4.88945005 1.49269463,4.88660052 1.51948098,4.88660052 L2.38557268,4.88660052 C2.57548098,4.88660052 2.72898732,5.02844359 2.72898732,5.20321451 C2.72898732,5.37798543 2.57548098,5.5198285 2.38557268,5.5198285 L1.56172098,5.5198285 C0.742333659,5.71834547 0.683609756,6.3480907 0.693912195,7.08928405 L0.695285854,8.27658651 C0.695285854,8.75657331 1.21178146,8.82812807 1.51948098,8.82812807 L2.42609561,8.82812807 C2.6160039,8.82812807 2.76951024,8.96997114 2.76951024,9.14474206 C2.76951024,9.31951299 2.6160039,9.46135605 2.42609561,9.46135605 Z" id="Shape"></path>
                            <path d="M9.63745951,8.10814786 L6.55256585,8.10814786 C6.36265756,8.10814786 6.20915122,7.9663048 6.20915122,7.79153387 C6.20915122,7.61676295 6.36265756,7.47491988 6.55256585,7.47491988 L9.63745951,7.47491988 C10.0069737,7.47491988 10.3078049,7.19788264 10.3078049,6.85720599 L10.3078049,1.26453648 C10.3078049,0.923226604 10.0069737,0.645556136 9.63745951,0.645556136 L4.61192976,0.645556136 C4.24241561,0.645556136 3.9419278,0.923226604 3.9419278,1.26453648 L3.9419278,1.61882754 C3.9419278,1.79359846 3.78842146,1.93544153 3.59851317,1.93544153 C3.40860488,1.93544153 3.25509854,1.79359846 3.25509854,1.61882754 L3.25509854,1.26453648 C3.25509854,0.574001374 3.86362927,0.0123281572 4.61192976,0.0123281572 L9.63745951,0.0123281572 C10.3861034,0.0123281572 10.9946341,0.574001374 10.9946341,1.26453648 L10.9946341,6.85720599 C10.9946341,7.54710787 10.3861034,8.10814786 9.63745951,8.10814786 Z" id="Shape"></path>
                            <path d="M6.03675707,5.77945197 C5.98764878,5.77945197 5.93785366,5.76963694 5.89011902,5.74905703 C5.71875512,5.67433613 5.6456078,5.48563419 5.72631024,5.3273272 L7.16556098,2.52244386 C7.24660683,2.3647701 7.45025171,2.29669809 7.62298927,2.37173561 C7.79435317,2.44645651 7.86750049,2.63515844 7.78679805,2.79346544 L6.34754732,5.59834877 C6.28882341,5.71264642 6.16553756,5.77945197 6.03675707,5.77945197 Z" id="Shape"></path>
                        </g>
                    </g>
                </g>
            </g>
        </g>
    </g>
</svg>