<?xml version="1.0" encoding="UTF-8" standalone="no"?>
<svg width="12px" height="11px" viewBox="0 0 12 11" version="1.1" xmlns="http://www.w3.org/2000/svg" xmlns:xlink="http://www.w3.org/1999/xlink">
    <!-- Generator: Sketch 44.1 (41455) - http://www.bohemiancoding.com/sketch -->
    <title>icon</title>
    <desc>Created with Sketch.</desc>
    <defs></defs>
    <g id="Page-1" stroke="none" stroke-width="1" fill="none" fill-rule="evenodd">
        <g id="main" transform="translate(-22.000000, -506.000000)">
            <g id="Group-5" transform="translate(0.000000, 325.148967)">
                <g id="airtaxi" transform="translate(0.000000, 167.633397)">
                    <g id="icon" transform="translate(20.000000, 10.421053)">
                        <polygon id="Shape-Copy-2" points="0 0 16 0 16 16 0 16"></polygon>
                        <g id="飞机" transform="translate(2.000000, 2.842105)" fill-rule="nonzero" fill="#000000">
                            <path d="M6.88590361,2.29138151 C6.88590361,1.80922884 6.50253012,1.44762854 6.01692771,1.47173219 C5.5313253,1.44761717 5.12239759,1.83334386 5.14795181,2.29138151 L5.58244578,2.31549653 C5.58244578,2.07442587 5.78691566,1.8815739 6.01693976,1.90566619 C6.24696386,1.88155117 6.45143373,2.07441451 6.45143373,2.31549653 L6.88592771,2.29138151 L6.88590361,2.29138151 Z" id="Shape"></path>
                            <path d="M7.42262651,2.79763784 C7.53554217,2.90414395 7.71863855,2.90414395 7.83155422,2.79763784 C7.94446988,2.69113172 7.94446988,2.51842863 7.83155422,2.41192252 C7.83155422,2.41192252 7.83155422,2.41192252 7.83155422,2.41192252 C7.71863855,2.3054164 7.53554217,2.3054164 7.42262651,2.41192252 C7.30971084,2.51842863 7.30971084,2.69113172 7.42262651,2.79763784 C7.42262651,2.79763784 7.42262651,2.79763784 7.42262651,2.79763784 Z" id="Shape"></path>
                            <path d="M5.99137349,0.0011932503 C4.91793976,0.0011932503 4.02339759,1.03780956 3.99784337,2.07442587 L4.20231325,3.52087252 L0.77753012,5.59410515 C0.624180723,5.69053114 0.521951807,5.73874981 0.394156627,5.81107215 C0.113024096,6.02803914 0.0107831325,6.22090249 0.0107831325,6.51019182 C0.0107831325,6.84768846 0.189686747,7.16109281 0.496385542,7.30572611 L0.521951807,7.32984113 C0.649746988,7.40216346 0.803084337,7.45038214 1.00755422,7.45038214 C1.18645783,7.42626712 1.36536145,7.40217483 1.51872289,7.35395615 C2.56660241,7.13698915 3.99785542,6.84769982 4.71348193,6.65483648 L4.91795181,8.00484578 L4.2023253,8.67985043 C3.87007229,8.99324341 3.79339759,9.11377306 3.76783133,9.47538472 C3.76783133,10.0057447 4.2023253,10.415575 4.76460241,10.415575 C4.96907229,10.415575 5.1479759,10.39146 5.3013253,10.295034 L6.11918072,9.5236034 L6.70701205,10.078067 C6.93703614,10.2468154 7.16704819,10.4155637 7.44820482,10.39146 C7.6526747,10.39146 7.83157831,10.3191377 7.98492771,10.2227117 C8.24050602,10.0298484 8.44496386,9.78878907 8.41942169,9.42717741 C8.41942169,9.08968077 8.08715663,8.87271377 7.83159036,8.63164312 L7.21819277,8.00485714 L7.37154217,6.60662917 C8.13827711,6.79949251 9.56954217,7.13698915 10.540747,7.32984113 C10.6940964,7.37804844 10.8218795,7.40216346 11.0007831,7.37804844 C11.205253,7.37804844 11.3841566,7.30572611 11.5119518,7.23340378 C11.7930843,7.06465546 11.971988,6.7512511 11.9975542,6.43786948 C11.9975542,6.10037284 11.869759,5.78696849 11.5375181,5.61822017 L7.78048193,3.61730988 C7.78048193,3.47267658 7.80604819,3.44856156 7.80604819,3.35213557 C7.83161446,3.27981324 7.80604819,3.15927223 7.75493976,3.11106491 C7.65271084,3.01463893 7.47380723,2.99052391 7.34601205,3.11106491 C7.29490361,3.15927223 7.29490361,3.2074909 7.26933735,3.27981324 L6.60483133,8.10127177 L7.78050602,9.21021041 C7.83161446,9.25841772 7.85718072,9.33075142 7.85718072,9.42717741 C7.88274699,9.64414441 7.65271084,9.86110004 7.42268675,9.83700775 C7.32045783,9.83700775 7.24378313,9.81289273 7.19266265,9.76468542 L6.37480723,8.99324341 C6.17033735,8.75217276 5.91477108,8.9450361 5.91477108,8.9450361 L4.96913253,9.83699638 C4.9180241,9.8852037 4.86690361,9.8852037 4.76466265,9.8852037 C4.53463855,9.86108868 4.35573494,9.69234035 4.33016867,9.47537336 C4.33016867,9.37894737 4.33016867,9.33072869 4.38127711,9.28251002 L5.53138554,8.19768639 L4.58574699,2.24318556 C4.58574699,2.19497825 4.56018072,2.12264455 4.56018072,2.07443724 C4.56018072,1.3030066 5.22468675,0.531575963 5.96587952,0.507460942 C6.57927711,0.507460942 7.14155422,1.03782093 7.34601205,1.61639959 C7.34601205,1.6646069 7.37157831,1.68872192 7.42268675,1.7369406 C7.52491566,1.83336658 7.70381928,1.8574816 7.83161446,1.7369406 C7.90828916,1.66461826 7.90828916,1.56819227 7.90828916,1.47176629 C7.62715663,0.676231992 6.88596386,-0.0228876772 5.99143373,0.00122734317 L5.99137349,0.0011932503 Z M7.7293253,4.19586581 L11.2818916,6.10035011 C11.4096867,6.17267244 11.4607952,6.36552442 11.4607952,6.51018045 C11.4352289,6.72714745 11.2563253,6.89589577 11.0263012,6.92001079 C10.9240723,6.92001079 10.8729518,6.92001079 10.7707229,6.87180348 L7.47372289,6.07626918 L7.7293012,4.1958999 L7.7293253,4.19586581 Z M4.61124096,6.17266108 L1.00754217,6.96819537 C0.777518072,6.94408035 0.547506024,6.72712472 0.547506024,6.53427274 C0.547506024,6.38963944 0.624180723,6.26909843 0.77753012,6.17266108 L4.27898795,4.02711749 L4.61125301,6.17266108 L4.61124096,6.17266108 Z" id="Shape"></path>
                        </g>
                    </g>
                </g>
            </g>
        </g>
    </g>
</svg>