<?xml version="1.0" encoding="UTF-8" standalone="no"?>
<svg width="10px" height="10px" viewBox="0 0 10 10" version="1.1" xmlns="http://www.w3.org/2000/svg" xmlns:xlink="http://www.w3.org/1999/xlink">
    <!-- Generator: Sketch 44.1 (41455) - http://www.bohemiancoding.com/sketch -->
    <title>icon</title>
    <desc>Created with Sketch.</desc>
    <defs></defs>
    <g id="Page-1" stroke="none" stroke-width="1" fill="none" fill-rule="evenodd">
        <g id="main" transform="translate(-23.000000, -542.000000)">
            <g id="Group-5" transform="translate(0.000000, 325.148967)">
                <g id="产品管理-copy-5" transform="translate(0.000000, 203.420301)">
                    <g id="icon" transform="translate(20.000000, 10.421053)">
                        <polygon id="Shape-Copy-2" points="0 0 16 0 16 16 0 16"></polygon>
                        <path d="M5.30432538,3.52214185 C5.77295246,3.52214185 6.21321429,3.6953233 6.54446731,4.00954953 C6.87572034,4.32377575 7.05828589,4.74165107 7.05828589,5.18589498 L7.05828589,6.84968745 L5.30432538,6.84968745 C4.83576572,6.84968745 4.39550391,6.67676181 4.06423791,6.36229209 C3.73298488,6.04805357 3.5504323,5.63012658 3.5504323,5.18589498 C3.5504323,4.74165107 3.73267371,4.32377574 4.06423791,4.00954953 C4.39550391,3.69501583 4.83602244,3.52214185 5.30432538,3.52214185 L5.30432538,3.52214185 Z M5.30545076,3 C4.03233574,3 3,3.97903135 3,5.18694776 C3,6.39465999 4.03208162,7.37393487 5.30545076,7.37393487 L7.09131344,7.37393487 C7.37816066,7.37393487 7.61061888,7.15313011 7.61061888,6.88101489 L7.61061888,5.18694776 C7.61094301,3.97903135 6.57886139,3 5.30545076,3 L5.30545076,3 L5.30545076,3 L5.30545076,3 Z M5.31073278,8.65057679 L5.31073278,8.65057679 L7.02775284,8.65057679 L7.02775284,10.2793399 C7.02775284,10.7143843 6.84911575,11.1233406 6.52478354,11.430987 C6.20046689,11.7386334 5.76930924,11.908103 5.31073277,11.908103 C4.85211483,11.908103 4.42099865,11.7386358 4.096682,11.430987 C3.77236535,11.1233381 3.5937127,10.7143819 3.5937127,10.2793399 C3.5937127,9.84433484 3.77236275,9.43533922 4.096682,9.12769284 C4.42100125,8.82004646 4.85211743,8.65057679 5.31073278,8.65057679 L5.31073278,8.65057679 Z M5.30545076,8.09736331 C4.03233574,8.09736331 3,9.07639467 3,10.2843504 C3,11.492011 4.03208162,12.4713006 5.30545076,12.4713006 C6.57860468,12.4713006 7.61094301,11.4922693 7.61094301,10.2843504 L7.61094301,8.59028329 C7.61094301,8.31816807 7.37816066,8.09736331 7.09131344,8.09736331 L5.30545076,8.09736331 L5.30545076,8.09736331 L5.30545076,8.09736331 L5.30545076,8.09736331 Z M10.7020796,3.51371227 C11.1670505,3.51371227 11.6043044,3.68558268 11.9330084,3.99744507 C12.2617825,4.30926811 12.442966,4.72403431 12.442966,5.16511743 C12.442966,5.60618824 12.2617825,6.020952 11.9330084,6.33282669 C11.6043044,6.64468908 11.1670634,6.81650783 10.7020796,6.81650783 L8.96120355,6.81650783 L8.96120355,5.16511743 C8.96120355,4.72403431 9.14233514,4.30926811 9.47110663,3.99744507 C9.79986775,3.68558268 10.2371087,3.51371227 10.7020796,3.51371227 L10.7020796,3.51371227 Z M10.6793334,3 C9.40617952,3 8.37388009,3.97903135 8.37388009,5.18694776 L8.37388009,6.88101489 C8.37388009,7.15313011 8.6063383,7.37363969 8.8934578,7.37363969 L10.6793205,7.37363969 C11.9524199,7.37363969 12.9847712,6.39465999 12.9847712,5.18668948 C12.9847712,3.97903135 11.9524329,3 10.6793334,3 L10.6793334,3 L10.6793334,3 L10.6793334,3 Z M10.67875,8.64344597 L10.67875,8.64344597 C11.140713,8.64344597 11.5748786,8.8142636 11.9016871,9.12401797 C12.228226,9.43377236 12.4082996,9.84588941 12.4082996,10.284043 C12.4082996,10.7222605 12.2284957,11.1343652 11.9016871,11.4441196 C11.5751482,11.753874 11.1407,11.9246916 10.67875,11.9246916 C10.2168415,11.9246916 9.7826759,11.7541322 9.45586734,11.4441196 C9.12932846,11.1341094 8.94925483,10.7222482 8.94925483,10.284043 L8.94925483,8.64344597 L10.67875,8.64344597 L10.67875,8.64344597 Z M10.6793334,8.09736331 L8.89347077,8.09736331 C8.60661058,8.09736331 8.37389305,8.31792455 8.37389305,8.59028329 L8.37389305,10.2843504 C8.37389305,11.492011 9.40592021,12.4713006 10.6793464,12.4713006 C11.9524485,12.4713006 12.9847998,11.4922693 12.9847998,10.2843504 C12.9847712,9.07663819 11.9524329,8.09736331 10.6793334,8.09736331 L10.6793334,8.09736331 L10.6793334,8.09736331 L10.6793334,8.09736331 Z" id="Shape" fill="#000000"></path>
                    </g>
                </g>
            </g>
        </g>
    </g>
</svg>