<?xml version="1.0" encoding="UTF-8" standalone="no"?>
<svg width="10px" height="12px" viewBox="0 0 10 12" version="1.1" xmlns="http://www.w3.org/2000/svg" xmlns:xlink="http://www.w3.org/1999/xlink">
    <!-- Generator: Sketch 44.1 (41455) - http://www.bohemiancoding.com/sketch -->
    <title>icon</title>
    <desc>Created with Sketch.</desc>
    <defs></defs>
    <g id="Page-1" stroke="none" stroke-width="1" fill="none" fill-rule="evenodd">
        <g id="main" transform="translate(-23.000000, -599.000000)">
            <g id="Group-5" transform="translate(0.000000, 325.148967)">
                <g id="订单管理" transform="translate(0.000000, 262.751223)">
                    <g id="icon" transform="translate(20.000000, 9.473684)">
                        <polygon id="Shape-Copy-2" points="0 0 16 0 16 16 0 16"></polygon>
                        <g id="Group" transform="translate(3.000000, 2.000000)" fill="#000000">
                            <path d="M1.37515921,1.57128341 C0.996641492,1.57128341 0.689440408,1.8638743 0.689440408,2.22440889 L0.689440408,10.0620924 C0.689440408,10.42296 0.996629848,10.7152734 1.37515921,10.7152734 L7.5461739,10.7152734 C7.92507624,10.7152734 8.2318927,10.42296 8.2318927,10.0620924 L8.91755323,10.0620924 C8.91755323,10.7834946 8.30351234,11.3683988 7.54617389,11.3683988 L1.37515921,11.3683988 C0.617762483,11.3683988 0.00377987179,10.7834946 0.00377987179,10.0620924 L0.00377987179,2.22440889 C0.00377987179,1.50303995 0.617762483,0.918102405 1.37515921,0.918102405" id="Shape"></path>
                            <path d="M8.6832888,9.98671039 L2.78703948,9.98671039 C2.06341879,9.98671039 1.47670875,9.42789564 1.47670875,8.73852241 L1.47670875,1.24980533 C1.47670875,0.560465412 2.06341879,0.00161735773 2.78703948,0.00161735773 L6.71786847,0.00161735773 C7.1565024,-0.00495497738 7.33091868,0.0106654108 7.37322614,0.0106654108 L7.37322614,0.00161735773 L9.99371276,2.49784898 L9.99371276,3.12194297 L9.99371276,8.7385224 C9.99371276,9.42789564 9.40706101,9.98671039 8.6832888,9.98671039 Z M7.37321449,0.625678039 L7.37321449,1.8738105 C7.37321449,2.21860259 7.66651122,2.49784898 8.02828078,2.49784898 L9.33858819,2.49784898 L7.37321449,0.625678039 Z M9.33858819,3.12194298 L8.02828078,3.12194298 C7.30462513,3.12194298 6.71785682,2.56307272 6.71785682,1.87381051 C6.71785682,1.87381051 6.70258883,1.37300326 6.70870768,0.62567805 L2.78703948,0.625678039 C2.42538647,0.625678039 2.1318916,0.905246386 2.1318916,1.24979423 L2.1318916,8.7385113 C2.1318916,9.08333669 2.42538647,9.3626608 2.78703948,9.3626608 L8.6832888,9.3626608 C9.04540801,9.3626608 9.33858819,9.08333669 9.33858819,8.7385113 L9.33858819,3.12194298 Z M7.70066022,6.04237866 L3.76974964,6.04237866 C3.58889983,6.04237866 3.44216404,5.90249457 3.44216404,5.73028171 C3.44216404,5.55809105 3.58889983,5.41826247 3.76974964,5.41826247 L7.70066022,5.41826247 C7.881545,5.41826247 8.02828078,5.55809105 8.02828078,5.73028171 C8.02828078,5.90249456 7.881545,6.04237866 7.70066022,6.04237866 Z M7.70066022,4.17013001 L3.76974964,4.17013001 C3.58889983,4.17013001 3.44216404,4.03035693 3.44216404,3.85814407 C3.44216404,3.6858424 3.58889983,3.54606932 3.76974964,3.54606932 L7.70066022,3.54606932 C7.881545,3.54606932 8.02828078,3.6858424 8.02828078,3.85814407 C8.02828078,4.03035692 7.881545,4.17013001 7.70066022,4.17013001 Z" id="Shape"></path>
                        </g>
                    </g>
                </g>
            </g>
        </g>
    </g>
</svg>